/* XPM */
static char *cervisia[] = {
/* columns rows colors chars-per-pixel */
"32 32 198 2",
"   c #0B0B13131616",
".  c #18180D0D1313",
"X  c #161615151A1A",
"o  c #1D1D10101919",
"O  c #1E1E1A1A1B1B",
"+  c #19191C1C2323",
"@  c #1B1B25252727",
"#  c #2F2F00000101",
"$  c #27271D1D1E1E",
"%  c #353508080B0B",
"&  c #3B3B03030282",
"*  c #38380A0A0D0D",
"=  c #3D3D10101515",
"-  c #3E3E1C1C1313",
";  c #2B2B1A1A2222",
":  c #3E3E20201818",
">  c #222222222222",
",  c #232329292727",
"<  c #25A62D2D2EAF",
"1  c #21212F2F3232",
"2  c #29D433DE348A",
"3  c #39BA21A224A4",
"4  c #333336363D3D",
"5  c #34B43A3A3D3D",
"6  c #393939393737",
"7  c #3C3C3A3A3F3F",
"8  c #37373C3C4040",
"9  c #3ABB3EBF43C4",
"0  c #363646464646",
"q  c #43EE01AC02AD",
"w  c #4C4C00000000",
"e  c #494902020808",
"r  c #41411A1A1515",
"t  c #494911111010",
"y  c #4F4F17171A1A",
"u  c #58580C0C0E0E",
"i  c #51510F0F1111",
"p  c #555514141212",
"a  c #5DDD1495199A",
"s  c #454522221C1C",
"d  c #46462A2A2727",
"f  c #4C4C35B62CAD",
"g  c #52522A2A2A2A",
"h  c #5E5E36363636",
"j  c #636308081111",
"k  c #6D6D05051010",
"l  c #656514141D1D",
"z  c #62621B1B1F1F",
"x  c #6A6A1C1C1A1A",
"c  c #797911111C1C",
"v  c #6A6A1F1F2323",
"b  c #636321212525",
"n  c #6D6D22A225A6",
"m  c #6D6D25252828",
"M  c #696937373838",
"N  c #767629292F2F",
"B  c #7D7D20202A2A",
"V  c #767624243030",
"C  c #7D7D2C2C3535",
"Z  c #727236363E3E",
"A  c gray30",
"S  c #42424D4D5151",
"D  c #49494D4D5656",
"F  c #474757575757",
"G  c #4C4C54545757",
"H  c #505041414848",
"J  c #5A5A4F4F4D4D",
"K  c #575753535454",
"L  c #53535A5A6060",
"P  c #53536E6E6969",
"I  c #5F5F62626767",
"U  c #5B5B6A6A6D6D",
"Y  c #5B5B70706B6B",
"T  c #636344444242",
"R  c #6E6E4B4B4949",
"E  c #727242424242",
"W  c #79795B5B5B5B",
"Q  c #7F7F62625E5E",
"!  c #636366666B6B",
"~  c #67676C6C6F6F",
"^  c #68686A6A6565",
"/  c #686868687070",
"(  c #646474747373",
")  c #6A6A7B7B7575",
"_  c #6D6D79797F7F",
"`  c #727265656C6C",
"'  c #76766C6C6A6A",
"]  c #717171717171",
"[  c #7C7C71717777",
"{  c #7C7C7C7C7C7C",
"}  c #797982827F7F",
"|  c #666687878080",
" . c #727280808181",
".. c #77778D8D8A8A",
"X. c #7AD08383822C",
"o. c #7B7B89898C8C",
"O. c #7FD9945A916C",
"+. c #848423232A2A",
"@. c #8F8F21212E2E",
"#. c #878726263737",
"$. c #8E8E31313B3B",
"%. c #979727273333",
"&. c #98982E2E3A3A",
"*. c #9D1C31B23DBE",
"=. c #A2A22D2D3D3D",
"-. c #9C9C3A3A4646",
";. c #A3A333B443C4",
":. c #A32238B944C4",
">. c #AFAF32324242",
",. c #B8B83D3D4F4F",
"<. c #BDBD3C3C5050",
"1. c #888846465050",
"2. c #93934D4D5858",
"3. c #888873737272",
"4. c #A7A742424848",
"5. c #A3A34A4A5050",
"6. c #B433464654D4",
"7. c #BFBF46465555",
"8. c #A8A856566262",
"9. c #A9A978787E7E",
"0. c #C5C546465959",
"q. c #C3C34E4E5E5E",
"w. c #C8C849495C5C",
"e. c #CFCF52526060",
"r. c #D7D75F5F6B6B",
"t. c #DADA5D5D6D6D",
"y. c #D8D85F5F7070",
"u. c #E9E968687A7A",
"i. c #E2E274748181",
"p. c #EFEF70708383",
"a. c #959580807F7F",
"s. c gray51",
"d. c #87878B8B8BE1",
"f. c #84848F8F9191",
"g. c #82E299859691",
"h. c #85C29FBE9D49",
"j. c #949482828080",
"k. c #91918F8F8282",
"l. c #930B9E719E71",
"z. c #9B1C9D43A279",
"x. c #9CDFA152A4C5",
"c. c #9D9DB0B0AEAE",
"v. c #A48C9C5BA2E9",
"b. c #A4B0A3C4A4B0",
"n. c #A26FA4E3A8CC",
"m. c #B05BB00DB1C0",
"M. c #A301B4D8B409",
"N. c #A7DABFF2BBEE",
"B. c #B00DB652B5A0",
"V. c #B282B282B282",
"C. c #B23DBEBBBEBB",
"Z. c #BDD0B29CB251",
"A. c #BAEDB907BAED",
"S. c #BC6FCDC1CAD7",
"D. c #C4C4A1A1A7A7",
"F. c #F9F983839191",
"G. c #C568C08EC2F3",
"H. c #C7B3C836CC26",
"J. c #C41CCF77CE47",
"K. c #CDA4C396C471",
"L. c #CE11CB1BCE22",
"P. c #CFCFCDCDD0D0",
"I. c #C5C5D3D3D4D4",
"U. c #CC32D39AD3E2",
"Y. c #D21AC83AC5A9",
"T. c #D110CC74CD48",
"R. c #D0D0CDCDD0D0",
"E. c #D569D2B0D538",
"W. c #D8B8D859DA91",
"Q. c #DFF0D65BD622",
"!. c #DA2DD7B2DA16",
"~. c #DD4CDB6FDD35",
"^. c #DFDFDE9EE0E0",
"/. c #D761E144DF6F",
"(. c #D0D0EDEDE8E8",
"). c #E0E0DEDEDFDF",
"_. c #E0E0DEDEE0E0",
"`. c #EEEEE0E0DFDF",
"'. c #E55EE426E569",
"]. c #E509E9B4E836",
"[. c #E3B3EE4CEE6F",
"{. c #ECE6EC1AECF4",
"}. c #EFEFEFEFF0F0",
"|. c #EFB2F10CF00B",
" X c #E6E6F6F6F3F3",
".X c #EFEFF0F0F0F0",
"XX c #EEEEFEFEFEFE",
"oX c #F122F01EF025",
"OX c #F0F0EFE1F0F0",
"+X c #F0F0F0F0EFEF",
"@X c #F456F446F453",
"#X c #F7F7F7F7F8F8",
"$X c #F7F7F8F8F7F7",
"%X c #F8F1F9D3F9D3",
"&X c #F8F8F7F7F7F7",
"*X c #F8F8F7F7F8F8",
"=X c #F9D3F9D3F8F1",
"-X c #FB68FB75FB66",
/* pixels */
"{.@X{.|.{.@X{.@X.X.X.X@X}.}.@X{.@X{.|.@X|.|.|.{.@X|.}.}.@X{.@X{.",
"{.@X@X|.@X{.@X{..X.X.XOX@X}.{.@X{.@X@X{.|.|.@X|.{.@X|.@X{.@X@X@X",
"@X|.@X{.@X|.@X{..X.X.X}.}.OX@X@X@X@X@X|.{.@X@X@X@X@X@X{.|.@X@X}.",
"@X|.@X@X@X@X@X@XV.m.f.].OX@X@X@X|.|.@X@X@X@X@X@X@X@X@X@X@X@X@X@X",
"@X@X@X@X@X@X@X@XP ].|.U.z.G 2 1 9 ~ @X@X@X@X@X@X@X@X@X@X@X@X@X@X",
"@X@X@X@X@X@X@X@XP | S.C.9 4 ! x.|.@X@X@X@X=X$X@X*X@X@X$X@X@X&X=X",
"*X@X&X@X&X@X$XX...(.h.d.+ / H.#X&X@X@X&X&X$X@X$X$X*X@X$X=X@X&X&X",
"*X*X@X$X$XY /.d. Xc.F 0 D #X#X%X&X=X=X*X*X=X*X*X*X*X=X*X*X*X#X&X",
"*X*X-X-X-XP | N.M.U.U._ L %X-X%X*X*X*X-X*X*X-X-X*X-X-X-X=X$X*X-X",
"-X*X$X-XX...(.h.g.J.{.o.0 x.-X%X-X-X-X-X*X-X-X-X-X-X-X-X-X-X-X-X",
"-X-XB.] d.[.c.F 0 U U 1 } d.l.-X-X-X-X-X-X-X-X-X-X-X-X-X-X-X-X-X",
"-X*XA =X-Xv.8 X 5 8   5 I.XX( ].-X-X-X-X-X-X-X-X-X-X-X-X-X-X-X-X",
"-X-X> s.E.[ o v.-XW.! @ 4 S. X) ].-X-X-X-X-X-X-X-X-X-X-X-X-X-X-X",
"-X-X{ , K H ; ).-X-X-XX.1 2 J.-X^ @X-X-X-X-X-X-X-X-X-X-X-X-X-X-X",
"-X-X-X] O . ` -X-X-X-X-X} , 6 T.{.j.W -X-X-X-X-X-X-X-X-X-X-X-X-X",
"T.T.T.A.s.s.L.L.P.L.P.L.L.b.$ 3 D.9.Z 2.L.P.P.P.T.T.L.P.P.P.T.T.",
"L.L.L.L.L.L.L.L.L.L.L.L.L.L.G.3 t 1.8.#.V L.L.L.L.L.L.L.L.L.L.L.",
"L.L.L.R.L.L.L.R.L.L.L.R.L.L.R.3.% e -.q.@.n L.L.L.L.L.L.L.L.L.L.",
"R.R.R.R.R.R.R.R.R.R.R.R.R.R.R.R.R & j =.r.5.x T.L.L.L.L.L.L.L.L.",
"E.R.E.E.R.R.E.R.E.R.E.R.E.R.E.R.T.E q $.u.e.%.u E.E.E.E.E.E.E.E.",
"!.!.R.!.E.E.!.E.!.E.E.!.E.E.!.E.E.K.M b B >.u.-.z E.W.~.E.E.E.E.",
"!.!.!.~.!.!.!.!.!.!.!.!.!.!.!.~.W.W.E.h q &.t.0.-.a W.~.W.W.W.W.",
"!.^.~.^.^.~.~.~.~.~.).~.).~.)._.~.~.~.j.g v c <.p.-.p Y.~.~.~.~.",
").).).)._.).).).).).).)._._._._._._._._.Z.s e 6.w.,.*.p '.~.~.~.",
"_._._.'.'._._.'.'._.'._.'._._._._._.'._.'.'.- a k y.F.+.n '.'.`.",
"'.{.'._.'.{.{.'.'.'.'.{.'.'.'.'.{.'.{.'.'.'.~.- t 5.&.0.:.n Q.'.",
"{.{.{.{.'.{.{.{.{.{.].{.{.{.{.{.{.'.{.].{.].{.k.f q w ;.6.N - {.",
"{.{.{.{.oX{.{.{.{.{.{.{.{.{.{.{.{.oX{.{.{.{.{.{.].f # l C y Q {.",
"OXOX.X.XoXOXOXOX@X{.@X{.}.}.}.}.oXOXOXOX@X{.@X{.@X{.d * # T @X}.",
"@XOX#XOXOX@X@X@X@X@X@X@X@X@X@X@XOXOXOX&X@X@X@X@X@X@X@XJ ' .XOX.X",
"*X#X#X#X*X*X&X&X=X@X&X&X&X&X&X&X&X&X#X#X$X@X$X#X@X@X*X=X&X#X#X#X",
"-X-X*X-X*X*X*X*X*X*X#X-X#X&X*X#X#X-X#X-X-X*X*X-X*X*X*X*X*X*X-X*X"
};
