/* XPM */
static char *debug[] = {
/* columns rows colors chars-per-pixel */
"32 32 256 2",
"   c #0BE30BE30C44",
".  c #070708080909",
"X  c #0EE80F6310DF",
"o  c #10FC10FC0FFC",
"O  c #1376138A13D9",
"+  c #1BAA1BAB1BAC",
"@  c #1D1D1E1E2020",
"#  c #27501A5E0780",
"$  c #2D2D1F1F0808",
"%  c #2D2D23230B0B",
"&  c #323227270D0D",
"*  c #35352CAD1111",
"=  c #313526301A13",
"-  c #3D3D35351A1A",
";  c #246424492433",
":  c #2CFC2CD92CDB",
">  c #272728282929",
",  c #33C033B733B9",
"<  c #3BE03BCF3BDE",
"1  c #384E374D36C9",
"2  c #3EBF3F3F40C0",
"3  c #42423B3B1D1D",
"4  c #4CCD45C628A8",
"5  c #489A423C3CA0",
"6  c #56564F4F3333",
"7  c #5C5C55D638B8",
"8  c #62625C5C3E3E",
"9  c #63EE63ED34EE",
"0  c #429142A54320",
"q  c #4BCB4BD44C23",
"w  c #48C848C84747",
"e  c #4E4E4F4F5050",
"r  c #50D04F4F4C4C",
"t  c #54544F4F4343",
"y  c #56D753D44747",
"u  c #5408542054A7",
"i  c #565656D758D8",
"p  c #5C155C045C19",
"a  c #5D5D5B5B5252",
"s  c #64E45BDC44C4",
"d  c #62625E5E5757",
"f  c #6A6A61E144C4",
"g  c #6D6D6A6A4A4A",
"h  c #6C6C66664B4B",
"j  c #61E4618D5FE5",
"k  c #72C86CC251A7",
"l  c #72726E6E5D5D",
"z  c #76CC70C655AB",
"x  c #7A7A71715252",
"c  c #63E963E363F6",
"v  c #6767676768E8",
"b  c #6F6F6F6F6060",
"n  c #6C806C766CB1",
"m  c #691D67DD663C",
"M  c #717B717B6A7E",
"N  c #797978786868",
"B  c #719B71927188",
"V  c #7D777CFB7CF2",
"C  c #ACE17AB6184B",
"Z  c #8484727248C8",
"A  c #86867A7A5A5A",
"S  c #91F56CF542F5",
"D  c #ACDB8D373349",
"F  c #B98497CF2885",
"G  c #B3C7A30733A7",
"H  c #BE41BE313B98",
"J  c #910691023130",
"K  c #8D0D8D0D5757",
"L  c #971681814747",
"P  c #99D78AED5889",
"I  c #9E6E99C15C83",
"U  c #888887876868",
"Y  c #818181816868",
"T  c #95958F8F6565",
"R  c #909090906868",
"E  c #9C2C95DC6ACB",
"W  c #9987960476C5",
"Q  c #99F498F37557",
"!  c #A4A48A8A4242",
"~  c #AAAA9C1B5555",
"^  c #B2B28C8C4E4E",
"/  c #B9B992924646",
"(  c #B4B49F9F5757",
")  c #A66095FC4679",
"_  c #A95F8C7D7459",
"`  c #B85A98D78050",
"'  c #B90A8B586512",
"]  c #B9A9B97748F6",
"[  c #A726A72663E4",
"{  c #BB3BBB3B66E7",
"}  c #CC4E9EEC1718",
"|  c #D9D99C9C0202",
" . c #C5F5872605D3",
".. c #DD0EA41A07CE",
"X. c #D5C4B912173D",
"o. c #E0E0ACAC0404",
"O. c #E612BB5609EC",
"+. c #E4E4B2B20505",
"@. c #E7E7BFBF1313",
"#. c #F8F8BFBF0505",
"$. c #C7C793935252",
"%. c #DC8292954C43",
"&. c #C77F93DB67B4",
"*. c #DC399EEA66FA",
"=. c #C0C0ABAB5C5C",
"-. c #CC4CB3B35252",
";. c #D4D4ADAD4343",
":. c #DDDDB8B84545",
">. c #C4C4A6A64B4B",
",. c #C8C8BFBF6464",
"<. c #D7D7B2B26767",
"1. c #E9899F3455D0",
"2. c #E0E0ADAD4848",
"3. c #F716BEBE5676",
"4. c #F5F5B93852D3",
"5. c #EAEABABA4747",
"6. c #E2AFA68B6D18",
"7. c #ECC2B35C7809",
"8. c #FAF2BBF26AF4",
"9. c #D2AFC3182305",
"0. c #DD87D50725E1",
"q. c #D4E7D2133097",
"w. c #E968C4C41B1B",
"e. c #EFA6D0F80965",
"r. c #F6F6C4430383",
"t. c #F9F9C5C50585",
"y. c #FA4FCC7604AF",
"u. c #FDFDD4540989",
"i. c #FD3CDC9C0A8A",
"p. c #FDFDDBDB0707",
"a. c #FF7FDBDB1616",
"s. c #FF7FDDDD1B1B",
"d. c #E9B3DA2B1A72",
"f. c #EB40CACA28D3",
"g. c #EC96CE2336E1",
"h. c #EDEDD0D03E3E",
"j. c #FFFFDFDF2626",
"k. c #FEFEE0E00B0B",
"l. c #FEFEE4E41AC5",
"z. c #FE7EEB6A1596",
"x. c #FF31ECB91B82",
"c. c #EFB9E8D621E3",
"v. c #E712E6112BB6",
"b. c #FFFFE38D2B2B",
"n. c #FFFFEC412C82",
"m. c #FFFFE5E538B9",
"M. c #FFFFED423B91",
"N. c #FFFFE3E33535",
"B. c #FFFFF4B42CAC",
"V. c #FFFFFA4F23CE",
"C. c #FFFFFD3C2C6C",
"Z. c #FFFFF5753CBC",
"A. c #FFFFFFFF33CD",
"S. c #FFFFFE6B3B84",
"D. c #E7E7E7E73C3C",
"F. c #D6D6D6D65ADB",
"G. c #D1D1CCCC6565",
"H. c #EE43D1D1449A",
"J. c #EF2ED3934C4C",
"K. c #FBA5C4C44CF7",
"L. c #FF18CDE74BFF",
"P. c #F7F7CCCC4848",
"I. c #FB50C5C5527D",
"U. c #FEFECC4C5050",
"Y. c #F0F0CACA5555",
"T. c #FFFFD2924D8D",
"R. c #F1F1D5D54F4F",
"E. c #FEFED3935292",
"W. c #FFFFD7575858",
"Q. c #FAFAD6555ADB",
"!. c #E5E5C8C85C5C",
"~. c #E0E0D0D06363",
"^. c #FAFAC7C76EEF",
"/. c #FCFCC9486EEF",
"(. c #F3F3C4C46B6B",
"). c #FDA7CC767373",
"_. c #FDFDC9C97D7D",
"`. c #FFFFD3527979",
"'. c #FFFFE5E543C4",
"]. c #FFFFE7E74DCE",
"[. c #FFFFEB6A45C6",
"{. c #FFFFECEC4E4E",
"}. c #FFFFEBAB54D4",
"|. c #FFFFED1F5C29",
" X c #F7F7F7F74848",
".X c #FFFFFEFE4545",
"XX c #FFFFFE974BB2",
"oX c #FFFFF27147C8",
"OX c #FFFFF4745151",
"+X c #FFFFF64B5BB1",
"@X c #FFFFFEDE5333",
"#X c #FFBFFEFE5C3C",
"$X c #F4F4F4F45555",
"%X c #ECECE9E963E4",
"&X c #E3E3E3E36565",
"*X c #FF47ECC7633E",
"=X c #F7F7E4E46464",
"-X c #FFFFF4736363",
";X c #FF5EFD5C6424",
":X c #F3F3F3F36565",
">X c #854D83D18355",
",X c #8E388C1A8C2C",
"<X c #8A3488CD87DD",
"1X c #9E379BC08B74",
"2X c #9C4E954588C6",
"3X c #9D749D749C91",
"4X c #A4179DC5954E",
"5X c #B6019CE88AF4",
"6X c #A5EBA1D7983C",
"7X c #A28EA17BA068",
"8X c #A545A4EDA545",
"9X c #AEB3ACF6AC67",
"0X c #B1FAAE5DAF22",
"qX c #B65AB4B6B48A",
"wX c #BBB5BB11BB4B",
"eX c #BEB2B910B4EB",
"rX c #C365BC0AB624",
"tX c #C393BEEEBD49",
"yX c #F178BBE281E7",
"uX c #C0C6BEC4C141",
"iX c #C93CC29ABEEB",
"pX c #FFFFDFDF9B9B",
"aX c #FFFFE6669797",
"sX c #FFFFE7E7A8A8",
"dX c #FFFFEE43AC01",
"fX c #FFFFED53B1E4",
"gX c #FFFFF2F2BEBE",
"hX c #C498C416C450",
"jX c #C8C8C7C7C7C7",
"kX c #CE24CC1ECE1C",
"lX c #CC0EC98FC843",
"zX c #D20BCF04CF04",
"xX c #D0EACF50D0EA",
"cX c #D43BD2F0D428",
"vX c #D9A2D7A1D9A2",
"bX c #DCC0DB6DDD08",
"nX c #E0E0DEDEE0E0",
"mX c #E0FFE0E9DFE8",
"MX c #FFFFF5F5C5C5",
"NX c #FFFFFB7AD352",
"BX c #FFFFFD7DDA59",
"VX c #E5D2E4E7E5C3",
"CX c #E9C2E893E86F",
"ZX c #ED81ED1BEDA5",
"AX c #E935E838E935",
"SX c #EFF7EFF7F0F7",
"DX c #EFEFF0F0EFEF",
"FX c #EFEFF0F0F0F0",
"GX c #F0F0EFEFEFEF",
"HX c #F0F0EFCFF0F0",
"JX c #F0FEF0FEEFFF",
"KX c #F3D9F3C8F3DF",
"LX c #F7F7F8F8F7F7",
"PX c #F8F8F7F7F8F8",
"IX c #F8F8F8F8F7F7",
"UX c #FA39FA48FA48",
/* pixels */
"ZXKXDXDXZXKXZXKXGXGXGXHXGXKXZXDXDXDXDXGXDXDXDXDXDXDXZXGXKXZXHXvX",
"ZXKXZXKXKXZXKXZXGXGXHXHXVXzXiXeXeXiXcXCXKXJXDXKXDXKXKXKXGXKXKXAX",
"KXKXDXZXKXZXKXZXGXnXrX` &.6.7.yX7.7.*.&.5XlXZXKXKXKXKXZXDXKXKXKX",
"KXDXKXKXKXKXKXKXeX' 1.pXsXMXNXBXBXNXgXpX8.%._ kXKXKXKXKXKXKXKXZX",
"KXKXKXKXKXKXAX>X5 $.`.aXdXdXfXfXdXfXfXdXaX/.S 0 4XKXKXKXKXKXKXVX",
"KXKXIXKXKXbXm : w A (.).)./././.^.).).).).<.d < : <XDXLXKXLXKXxX",
"IXKXKXKXCXc ; 1 0 r ^ 4.3.3.3.3.3.I.3.3.4.Z q 2 : ; <XKXLXKXLXjX",
"IXIXLXKX>X+ > , < 0 s 2.3.I.I.I.I.I.I.3./ w 0 < , ; > 9XIXLXKXjX",
"IXIXIXwX; + > : < 5 0 L P.L.L.L.L.L.L.5.f 0 2 1 : ; O < bXUXcXkX",
"UXUXDXi O @ > , 1 < 0 t ;.T.L.L.L.T.T.L 0 2 < , : ; + X >XZXkXcX",
"UXUXwX+ O + > : , < < 2 Z P.T.T.T.L.:.y 2 < 1 , : ; + X 1 wXcXcX",
"UXUXB   O + ; : , 1 2 0 r >.E.W.E.T.L q 0 < , : > ; + X o ,XcXcX",
"UXKX<   O + ; > : < 0 q e x Y.W.W.-.a q q 2 1 : > @ + X . a cXcX",
"UXcX+   O + ; : , 5 w e u p ( W.Q.A i u q w 2 , > + O X   1 jXcX",
"UXwXO   X O @ : 1 0 q u i i l !.( j p u e q 2 , > + O X . ; wXvX",
"kX,X# $ & * 3 4 7 y f g k x z ~ P z k k h f 7 6 4 - * % # = 9XkX",
"kX2X ...+.O.w.f.f.g.h.H.J.J.J.~ -.R.J.J.H.g.g.f.w.@.O...| C 0XlX",
"kX4X..t.u.a.j.m.].].}.|.|.-X~.N R =X*X|.|.}.].'.N.j.a.y.r.F qXzX",
"xX9X} t.u.s.N.M.[.}.|.|.-X*XE v n ,.-X*X|.|.{.[.m.b.a.u.#.D tXkX",
"xXuXF y.p.b.n.M.oXOX+X-X;XG.M v n U %X;X+XOXOXoXM.n.l.u.r.P kXxX",
"cXxXT t.k.x.B.Z.XX@X#X;X:XR n M n n { ;X;X#X@X XZ.n.l.p.O.2XcXcX",
"vXvX4XO.k.c.B..XXX@X#X;X{ B B B B B Y ~.;X#X@X.XS.B.z.p.F eXvXvX",
"bXbXhX) i.x.C.S.XX@X#X%XY n B B B B n [ ;X#XXX.XS.V.z.e.E cXbXbX",
"nXnXbX6XX.x.C.S..X@X#X[ v n B B B B n M G.#X@X.XS.V.z.G qXbXVXbX",
"nXVXnXxXW d.C.S..XXXF.b c n B B B B n v R $XXXS.C.V.9.1XbXVXVXnX",
"AXVXAXnXuX~ c.C..X XK p v m n B n n v j p ] .XS.C.0.W xXVXVXVXVX",
"AXZXAXZXVXwXI v.A.H y u p c m v v v j p u g D.C.q.W lXVXAXAXAXAX",
"ZXZXZXZXZXVXhXQ H 9 0 r u p p j j p p e q 2 J ] 1XlXAXZXZXZXZXZX",
"DXHXKXKXZXKXAXcX3Xj 0 0 w e u e u e e w 2 w B 9XvXZXHXHXHXHXHXHX",
"KXKXKXKXKXKXKXDXVXjX3XB p e q w q q e p V 8XkXAXKXKXKXKXKXKXKXKX",
"PXKXPXKXPXIXKXLXLXFXCXcXuX9X7X3X3X7XqXjXbXZXKXPXPXPXPXKXKXPXPXKX",
"IXUXUXUXUXIXUXIXUXUXUXLXKXDXZXVXVXZXDXKXPXUXPXPXPXPXUXUXUXUXUXUX"
};
