/* XPM */
static char *editpaste[] = {
/* columns rows colors chars-per-pixel */
"32 32 135 2",
"   c #11110D0D0A0A",
".  c #171713130F0F",
"X  c #181815151010",
"o  c #1D1D18181313",
"O  c #208B1C891686",
"+  c #242422221D1D",
"@  c #282823231D1D",
"#  c #2B2B27272121",
"$  c #2E12290F228B",
"%  c #3BAE39B233D6",
"&  c #46E0323225F3",
"*  c #44443B3B2E2E",
"=  c #484833332727",
"-  c #4A753535297F",
";  c #4D4D398F2BD6",
":  c #4527415F3BB4",
">  c #5D5D54544242",
",  c #65045127414D",
"<  c #6F855E6C4C52",
"1  c #6B6B5EC55050",
"2  c #646465655C5C",
"3  c #6C89620C531A",
"4  c #6B6B66E759DA",
"5  c #6D6D69695C5C",
"6  c #777762624B4B",
"7  c #7F3D60604279",
"8  c #710A64975555",
"9  c #738A6ADC5C55",
"0  c #73736F6F6161",
"q  c #757571716262",
"w  c #7A7A76766565",
"e  c #79C57462699C",
"r  c #7E7E7A7A6969",
"t  c #857B65D348F6",
"y  c #8DF76DC8516F",
"u  c #8CB972905835",
"i  c #818176766464",
"p  c #83F07F3176A7",
"a  c #838380806F6F",
"s  c #8AF186F075F1",
"d  c #8FB98AC37EDC",
"f  c #915290537D66",
"g  c #A1208E0E7676",
"h  c #A4A48F8F7979",
"j  c #B013954976AC",
"k  c #B0E4960D76E6",
"l  c #B46F9E9D8041",
"z  c #CDCDB6B27E57",
"x  c #9A9A97978B8B",
"c  c #9B9B98988C8C",
"v  c #A6F89EBD8FEE",
"b  c #A1A19E48933D",
"n  c #B1B19E9E8888",
"m  c #A3D0A2229433",
"M  c #A1F7A5DE9D0E",
"N  c #A9A9A7A79C9C",
"B  c #ABABA9A99B9B",
"V  c #B3E6A2AE89CF",
"C  c #BEADA9188783",
"Z  c #AAAAA8A8A0A0",
"A  c #B0B0AFAFA7A7",
"S  c #B5B5B3B3A7A7",
"D  c #B5F7B43BABC1",
"F  c #BEA5B2E9A65A",
"G  c #BCAFB7B7AEA8",
"H  c #BA39B94FAF0E",
"J  c #BC5ABB62B31A",
"K  c #C6E9B0378108",
"L  c #D4D4BCBC8383",
"P  c #C3AAB627A4CD",
"I  c #C19DB6B7AA1B",
"U  c #CCD8BEBBA97B",
"Y  c #C0C0BFBFB8B8",
"T  c #D7D7C1C18A8A",
"R  c #D9D9C1C18585",
"E  c #DADAC6C68F8F",
"W  c #D8D8C6C69696",
"Q  c #DCDCC9C99797",
"!  c #C20DC152B821",
"~  c #C342C302BB3A",
"^  c #CECECBCBBEBE",
"/  c #D5D5C7C7A8A8",
"(  c #D214C543B19D",
")  c #D57ACC1CBA9E",
"_  c #DFDFD3D3AEAE",
"`  c #D9EDD167BFF1",
"'  c #E41ED790B444",
"]  c #E0E0D6D6BBBB",
"[  c #CB4ACB90C6EC",
"{  c #CE57CB70CE49",
"}  c #CFCFCDCDD0D0",
"|  c #CFA7D144CD36",
" . c #D2D2CFCFC747",
".. c #D136CDE9D00C",
"X. c #D148CE1BD12A",
"o. c #D2D2D2D2C6C6",
"O. c #D562D54BCCD6",
"+. c #D5D5D8D8CFCF",
"@. c #DC96D4D3C569",
"#. c #D590D300D51F",
"$. c #D8D5D9AFD2A7",
"%. c #D93DD70DD52F",
"&. c #DA26D78ADA0C",
"*. c #DCE3DE39D628",
"=. c #DD4DDB69DD63",
"-. c #DFDFDE88E0E0",
";. c #DE5EE0E0D7D7",
":. c #DF96E1E1D990",
">. c #E0E0DADAC2C2",
",. c #E38DDC20CD38",
"<. c #E0E0DEDEDFDF",
"1. c #E0F1DF19E12E",
"2. c #E4E4E0E0CECE",
"3. c #E8E8E2E2CECE",
"4. c #E439E28CD5D5",
"5. c #E3F5E518DD58",
"6. c #E5C5E54AE3DE",
"7. c #E7E7E8E8E1AE",
"8. c #EB20E896E4E7",
"9. c #EB26EBF4E4E3",
"0. c #EDDDEDBDEC25",
"q. c #F008EFF4F118",
"w. c #EFF8F0F3EBB0",
"e. c #F2BCEF6DE7D2",
"r. c #F14BEFA7EFB1",
"t. c #F118F000F115",
"y. c #F207F300ED26",
"u. c #F46DF44AF453",
"i. c #F7F7F7F7F8F8",
"p. c #F7F7F8F8F7F7",
"a. c #F85AF96AF911",
"s. c #F911F7DCF5C8",
"d. c #F8F8F7F7F8F8",
"f. c #F976F95AF85A",
"g. c #FB37FB3FFB40",
/* pixels */
"0.u.0.q.q.u.0.u.0.q.u.q.r.u.0.q.q.q.q.q.u.0.0.q.u.0.q.q.u.0.0.u.",
"u.0.q.u.q.0.q.0.r.r.0.q.q.0.0.Z &.u.r.u.q.0.u.q.q.u.q.u.w.u.q.q.",
"q.0.u.q.q.q.u.q.r.u.q.u.u.u.$.x p 5.u.r.u.u.q.u.u.u.u.q.u.q.u.u.",
"u.u.u.q.u.q.u.u.r.0.0.e.0.[ * # $ e 6.r.y.u.w.w.u.q.u.q.u.u.u.u.",
"u.u.u.u.u.u.u.8.u t t y < % O o   $ M V k k j l ,.u.u.u.u.u.u.u.",
"u.i.u.u.u.i.r.b g V g 6 * + O X X $ 2 i g P U / ( d.u.u.u.i.i.i.",
"u.s.d.u.u.s.5.9 o.9.^ B m m m x c b b B S 4.s.y.@.d.u.s.a.u.u.i.",
"i.d.u.d.d.d.&.< o.9.5.9.e.9.9.w.e.y.y.y.y.y.y.y.@.d.d.s.d.a.i.a.",
"i.a.a.a.a.a.$.1  .9.7.9.9.0.w.w.w.y.y.y.y.y.y.y.@.d.a.f.g.g.a.g.",
"a.a.a.a.a.a.O.1 O.6.7.7.9.9.w.9.w.w.w.e.y.y.y.y.` i.g.g.g.a.g.g.",
"g.g.g.g.g.g.O.1 O.9.7.7.9.9.9.0.9.w.w.w.y.y.y.y.) a.g.g.g.g.g.g.",
"g.g.g.g.g.g.{ 1 O.7.7.7.9.9.9.9.9.9.w.e.e.y.w.y.) a.g.g.g.g.g.g.",
"g.g.g.g.g.g.[ 1 O.5.5.e.5.e.9.9.9.w.w.9.0.w.w.e.) s.e.g.g.g.g.g.",
"g.g.g.g.g.g.[ 3 $.5.9.5.5.9.9.9.w.9.9.w.0.e.w.9.) e.,.g.g.g.g.g.",
"g.g.g.g.g.g.[ 3 O.5.5.5.9.9.9.e.9.w.w.9.9.0.9.0.U ' s.g.g.g.g.g.",
"X.X.X.{ X.X.J 3 $.5.5.5.5.5.9.5.9.9.9.9.9.0.e.9.z ) { { X.{ X.X.",
"{ { { ..{ ..J 8 $.5.5.5.5.9.5.9.7.7.9.9.9.9.w.3.z O.{ { { { { { ",
"{ { ..X.{ ..J 3 +.5.5.5.5.5.5.5.7.7.9.9.9.9.9.E C | } } { { { { ",
"....X.X.....J 3 +.4.5.5.5.5.5.9.7.7.7.7.9.w.' Q P #.| } X.} } { ",
"X.X.X.#.X.X.J 3 +.5.5.5.5.5.5.7.7.7.7.7.5.3.R 3.F $.#.#.X.#.X.#.",
"&.#.&.#.#.&.J 3 +.;.4.:.5.5.5.5.7.7.5.9.5.Q _ 5.F &.#.#.&.#.#.#.",
"&.&.&.&.&.=.J 8 O.4.;.:.:.:.5.5.:.:.5.5.` E 5.5.I =.&.&.&.&.&.&.",
"=.=.=.=.=.<.G 8 O.*.;.:.:.:.:.:.7.:.7.:.R >.7.:.F =.=.=.=.=.=.=.",
"1.1.1.1.1.1.H 9 +.*.;.;.:.:.:.:.:.:.:.` / 5.5.;.F 1.-.-.-.-.-.-.",
"6.6.6.6.1.1.J 9 | *.*.;.*.;.:.:.5.:.*.o.:.5.5.*.F 6.1.0.1.1.1.1.",
"6.6.6.6.0.6.G 0 $.;.*.;.;.;.:.:.5.:.5.5.5.5.5.*.G 6.1.6.0.1.1.q.",
"0.0.0.6.6.0.D 1 B A D D D H H J J Y ~ Y ~ ~ ~ J I 0.6.6.q.1.q.0.",
"0.0.0.0.q.q.J , ; - & & & & & & = - - - - ; ; , O.0.0.q.q.0.0.0.",
"q.q.q.q.q.q.&.b d s a r w q q 9 5 5 5 2 4 4 9 ~ q.q.t.t.q.q.q.q.",
"u.u.u.u.t.i.u.0.0.7.7.6.6.6.6.6.6.6.6.5.1.1.7.w.t.u.t.t.q.t.u.u.",
"d.d.i.i.i.i.i.u.s.i.p.p.p.p.s.i.i.p.u.p.i.i.i.d.d.d.d.i.d.d.i.u.",
"a.d.g.d.d.g.d.d.a.a.a.a.i.p.a.a.a.a.a.i.g.d.d.g.d.d.d.d.d.d.d.d."
};
