/* XPM */
static char *editcut[] = {
/* columns rows colors chars-per-pixel */
"32 32 79 1",
"  c black",
". c #15C615C515C6",
"X c #1D291D101D29",
"o c #25D525BC25D3",
"O c #2B9D2B772B9C",
"+ c #33E233B233E7",
"@ c #3C723C173C64",
"# c #447044144481",
"$ c #4CED4C994CE8",
"% c #50374FE95084",
"& c #52D1523552DC",
"* c #5C9F5BB45C95",
"= c #614D5FC1614D",
"- c #63EC636A63A5",
"; c #686B6776686B",
": c #6DE76D0D6DE7",
"> c #736D72D17345",
", c #789377987798",
"< c #7C177B807BE1",
"1 c #85DA849885BA",
"2 c #8B8B88888585",
"3 c #8C668B138B98",
"4 c #9112907E907E",
"5 c #91598FC291AC",
"6 c #9455938793EB",
"7 c #99FA9804960E",
"8 c #98CF982D98CF",
"9 c #9D9D9A199616",
"0 c #9D539C1C9CC1",
"q c #A0A09F9F9D9D",
"w c #A2BBA1BE9FD8",
"e c #A5B4A516A531",
"r c #AA50A753A357",
"t c #A9AFA832A9AF",
"y c #AD42AC0FAC1F",
"u c #B0EFAE6BB019",
"i c #B2B5B022B2B5",
"p c #B408B307AFE8",
"a c #B510B452B49B",
"s c #B9B9B636B130",
"d c #B9A0B6E8B9A0",
"f c #BFBFBCBCB7B7",
"g c #BD3EBBD2BCB0",
"h c #C1A7BF60BACC",
"j c #C26FC035C1FE",
"k c #C349C19FBDA0",
"l c #C58AC4ACC530",
"z c #CA49C7C7C342",
"x c #C9B1C7C9C9EA",
"c c #CDFCCB25CDFF",
"v c #CFCFCDCDD0D0",
"b c #D0D0CDCDCFCF",
"n c #D127CE53D112",
"m c #D7D7D4D4CCCC",
"M c #D596D35CD53A",
"N c #D8E8D6E7D3E5",
"B c #DA1CD7D6DA00",
"V c #DFDFDCDCD4D4",
"C c #DCD1DB6CDCDA",
"Z c #E007DF5CE101",
"A c #E008E0EADFE9",
"S c #E109DF4DE12A",
"D c #E548E41DE546",
"F c #E8E8E6E6E1E1",
"G c #E8FEE7FEE8FE",
"H c #ED1CEC77ED39",
"J c #EFEFEFEFF0F0",
"K c #EFEFF0F0EFEF",
"L c #F0F0EFEFEFEF",
"P c #F0F0EFDFF0F0",
"I c #F0F0F0F0EFEF",
"U c #F454F440F44D",
"Y c #F7F7F7F7F8F8",
"T c #F7F7F8F8F7F7",
"R c #F7F7F8F8F8F8",
"E c #F8F8F7F7F7F7",
"W c #F8F8F7F7F8F8",
"Q c #F8F8F8F8F7F7",
"! c #FB8CFB8EFB83",
/* pixels */
"HUHUHUKKKKKKKHUHUKKKHKKHUKHUHHUH",
"HUHKUHUHKKlAUHHUUKUHUKUKHUUHUUUU",
"UUUUUHUHKK0pUUUHUHHUUKUUUHUUUUUH",
"UHHUAdDHAB0pAHUUUUUUUUUUUUUUUUUU",
"UUUUG0alw<,6aUUUUUUUUUUUUUUUUUUU",
"UUTUUayCg+ +eHUTUTUUU!UUUQUTUTUT",
"TUUUTG4zM%.+azRUTTUUUUTU!UEUTURT",
"TTTTTTvwNht-htURTTR!!!R!!!U!Y!YY",
"TRRRRRGtqNNazpFREEY!T!!!Q!!!Q!TR",
"TRRRR!De,fNpkkkR!!!!!!!!R!!!!!!!",
"R!!!!!Uxa4kskfrQ!!!!!!!!!!!!!!!!",
"!!!!!!!!!C3r97rA!!!!!!!!!!!!!!!!",
"!!!!!!!!!Rx<32hrH!!!!!!!!!!!!!!!",
"!!!!!!!!!!!aqVm9dK!!!!!!!!!!!!!!",
"!!!!!!!!!!!G6Fw-eaK!!!!!!!!!!!!!",
"nnncnnncnncx<u=**:;accncnnccncnn",
"cccccccccccc116dy;O%tcccjjcccccc",
"cccccccccccv5@5cca=o$8i5$*3dcccc",
"nvvvvvvvvvvn0o>vnna*o+&#oOo$0vcv",
"MnMMnMMMMnjv8+&xnnni$oo@301@@0Mn",
"MBBMMMBMMj=%+o@dBMMnw+o*jMje@$jM",
"BBBBBBBBB3@O@+O0BBBBn1o@uBZM1OwB",
"SBBSZBBZM*O1y8+>CCCBSj#o#0vc>OeB",
"SSSSSSSSx@%xZB:#cZZSSM:O.o#@o%jS",
"SSSSHSSSx+-BDAt+tDDSDZd:*+oo$8BS",
"HSSHSHHHM#=ADGc@1DGGDGSnje55uMSG",
"HSPSSHHSA=#MGGC$<GGGGHHGGSSSGGHH",
"PHPHUHHUK8OeJHD$1HHHHHHPPHPHHHHH",
"PPPPUUPPHv#$lHj+8JPPPPUPPPPPPPPP",
"UUUUUUUUUK6o+;++iUUUPPPPYPUPPUUP",
"WWWWWWWURUA,OXo:BUUYYYYYYYWYYWYY",
"WW!WWWWWTRTM8<2lUY!!YYYWYYWWWWWW"
};
