/* XPM */
static char *editcopy[] = {
/* columns rows colors chars-per-pixel */
"32 32 168 2",
"   c #2F2F2F2F1C1C",
".  c #31B22EAE1C9D",
"X  c #333332321E1E",
"o  c #38382B2B2525",
"O  c #3B3B3F3F2C2C",
"+  c #41413B3B2626",
"@  c #4B4B34342C2C",
"#  c #4F4F3C3C3030",
"$  c #515136362D2D",
"%  c #51513A3A3232",
"&  c #5A5A3E3E3232",
"*  c #6D6D3E3E3232",
"=  c #69693F3F3939",
"-  c #777737372C2C",
";  c #73733C3C2F2F",
":  c #454545452D2D",
">  c #4F4F4B4B2D2D",
",  c #4B4B4ACA3B3B",
"<  c #515148483636",
"1  c #5A5A44443939",
"2  c #585856563838",
"3  c #606046463C3C",
"4  c #44444B4B4242",
"5  c #4B4B47474747",
"6  c #4A4A4B4B4646",
"7  c #51514F4F4C4C",
"8  c #5B5B4B4B4242",
"9  c #575756564242",
"0  c #555559594B4B",
"q  c #515156566363",
"w  c #63E44CCC44C4",
"e  c #63634C4C4848",
"r  c #63E455554D4D",
"t  c #62E35ADB4BCC",
"y  c #696952524646",
"u  c #6F6F5C5C4A4A",
"i  c #63E45B5B52D3",
"p  c #70704F4F4C4C",
"a  c #727255554747",
"s  c #77775D5D4D4D",
"d  c #7A7A5D5D4D4D",
"f  c #68E864644A4A",
"g  c #676767675353",
"h  c #64BA650F5959",
"j  c #676768685151",
"k  c #6B6B62625656",
"l  c #6D6D61615959",
"z  c #6B6B68685E5E",
"x  c #727272725959",
"c  c #63636E6E6969",
"v  c #6F6F6E6E6262",
"b  c #636370707575",
"n  c #79797A7A7373",
"m  c #7CE37CE37CE3",
"M  c #60606B6B8080",
"N  c #747483839F9F",
"B  c #84842D2D2323",
"V  c #84843B3B2E2E",
"C  c #888834342A2A",
"Z  c #898938383131",
"A  c #909048483F3F",
"S  c #87874E4E4141",
"D  c #9B9B5C5C4E4E",
"F  c #8C8C77777373",
"G  c #8E8E88887A7A",
"H  c #92D28D8D7D7D",
"J  c #979792927F7F",
"K  c #8B8B8A8A8686",
"L  c #8C438C318C43",
"P  c #82828C0B9413",
"I  c #808090909D9D",
"U  c #90908D8D8484",
"Y  c #90908F8F8888",
"T  c #929292928D8D",
"R  c #9B9B96168606",
"E  c #9D9D98988484",
"W  c #9B9B98988F8F",
"Q  c #951494859514",
"!  c #999E97CA999E",
"~  c #9C9C9C9C9797",
"^  c #9D7E9CA49D33",
"/  c #83839696B8B8",
"(  c #9E9EA0A09A9A",
")  c #9797A4A4BBBB",
"_  c #A2A29C9C8E8E",
"`  c #A4A49F9F9393",
"'  c #BBBB92928D8D",
"]  c #BEBE9B9B9595",
"[  c #A1029F54A102",
"{  c #A2A2A1E19C5C",
"}  c #A4ECA454A4E3",
"|  c #A1A1A6A6ABAB",
" . c #A7A7ACACAEAE",
".. c #A9A9ABABA7A7",
"X. c #AC9EAC7DAC92",
"o. c #B03AB13BB099",
"O. c #AEAEB3B3B9B9",
"+. c #B0E0B051B051",
"@. c #BBBBB0B0A0A0",
"#. c #B550B540B552",
"$. c #B8E0B8E0B84D",
"%. c #BC36BC32BC36",
"&. c #9393A7A7C7C7",
"*. c #9F9FADADC1C1",
"=. c #9C9CB1B1D5D5",
"-. c #9E9EB5B5DDDD",
";. c #9F9FB6B6E1E1",
":. c #A6A6B1B1C4C4",
">. c #A666BA7ADE5E",
",. c #A9A9BBFBDD1C",
"<. c #B1B1BABAC6C6",
"1. c #B0B0BEBED9D9",
"2. c #BFBFC0C0BCBC",
"3. c #BCBCC2C2CDCD",
"4. c #B5B5C3C3DCDC",
"5. c #BABAC747DD5D",
"6. c #BEBEC9C9DEDE",
"7. c #BCBCCACAE38D",
"8. c #C7C7A6A69E9E",
"9. c #D2D2ABAB9191",
"0. c #C0C0BBBBACAC",
"q. c #C2C2B8B8B5B5",
"w. c #D6D6BDBDABAB",
"e. c #D9D9BEBEACAC",
"r. c #C1C1C1C1BEBE",
"t. c #DADAC4C4B6B6",
"y. c #DBDBC9C9BE3E",
"u. c #C525C533C51D",
"i. c #CAFAC83FCAFA",
"p. c #CACACACAC6C6",
"a. c #CC5FCC23CC57",
"s. c #C1C1C7C7D1D1",
"d. c #CBCBCECED2D2",
"f. c #C8C8D0D0DDDD",
"g. c #D2D2CFCFCDCD",
"h. c #DCDCCECEC5C5",
"j. c #DDDDCECECCCC",
"k. c #D1BFCEC4D1BF",
"l. c #D0D0D0D0CFCF",
"z. c #DC6CD495CFAE",
"x. c #D4A6D48AD486",
"c. c #D3D3D656DADA",
"v. c #D73DD9A6DDAA",
"b. c #D8E6D7E3D5EB",
"n. c #D9B3D737DA32",
"m. c #DC11DA67D766",
"M. c #DCA1DC87DC6F",
"N. c #DFDFDFDFE0E0",
"B. c #D9D9DEDEE8E8",
"V. c #DFD5E1D3E556",
"C. c #E160D3D3D150",
"Z. c #E1E1DC5BD5D5",
"A. c #E1E1E261DF5F",
"S. c #E419E3D3E44A",
"D. c #E90FE81CE81C",
"F. c #EB40EA94E73C",
"G. c #ECB6EC65EC8B",
"H. c #EFEFEFEFF0F0",
"J. c #EFEFF0F0EFEF",
"K. c #F016F114F114",
"L. c #F0F1EFF0F0F1",
"P. c #F0F0F0F0EF99",
"I. c #F3E6F3DFF3D7",
"U. c #F7F7F7F7F8F8",
"Y. c #F803F902F902",
"T. c #F8F8F7F7F7F7",
"R. c #F8F8F7F7F8F8",
"E. c #FC99FCA7FCA3",
/* pixels */
"G.n.q.3.%.%.%.%.%.%.#.%.#.p.D.K.K.H.H.H.I.L.L.J.J.J.L.L.L.L.L.L.",
"J.$.M.M.M.M.M.M.x.x.l.a.%.#.#.D.K.K.K.J.J.J.J.J.J.I.I.L.L.I.K.L.",
"J.X.N.h.w.S.A.M.M.M.n.x.a.#.o.$.G.I.K.K.J.I.J.I.I.K.I.K.I.K.I.I.",
"J.+.M.t.9.Z.M.A.M.n.n.x.l.#...l.$.G.I.I.I.I.I.I.I.I.I.I.I.I.I.I.",
"I.+.z.y.e.y.u.u.p.<.r.q.#...~ G.M.$.G.I.I.I.I.U.I.I.I.I.I.I.I.U.",
"I.+.m.g.x.a.p.a.d.u.p.u.3.$.^ a.N.a.$.D.K.J.K.I.Y.Y.I.U.U.I.I.T.",
"I.+.M.d.p.<.u.a.a.p.u.p.u.%.! m M K ^ } #.+.X.+.M.T.T.I.U.Y.R.R.",
"I.#.M.a.q.u.u.p.u.p.r.a.%.$.} L ` Y L X.u.x.i.$.X.m.T.Y.Y.R.R.R.",
"I.$.M.a.u.a.l.l.a.v.a.p.a.%.$.$.$.X.X.$.$.l.l.$.X.$.M.Y.E.Y.Y.E.",
"R.$.N.a.l.x.x.l.a.a.u.l.l.a.a.u.u.u.#.q.$.u.p.$.( n.%.m.E.Y.E.E.",
"U.$.S.u.2.a.x.l.i.i.a.l.l.a.a.r.p.i.3.r.+.%.$.o.^ S.H.3.m.E.E.E.",
"Y.$.S.a.a.v.x.a.x.a.a.p.a.a.a.a.a.u.u.l.+.%.3.%.! ..%.$.+.m.E.E.",
"R.$.D.M.M.N.N.x.x.x.v.2.a.l.x.v.v.l.x.M.$.u.u.q...M n m K } S.E.",
"R.$.G.n.a.M.v.q.p.c.G.v.l.l.M.x.x.p.N.S.$.u.u.%.+.[ } ^ [ X.%.E.",
"E.$.S.n.x.l.l.x.l.M.V.7.s.7.7.7.5.4.6.V.#.r.a.%.r.$.%.#.X.#.+.E.",
"p.! S.M.l.x.x.v.v.D.f.)  .:.N / -.;.,.V.$.a.x.a.g.u.i.u.%.u.Q i.",
"a.! D.M.l.x.x.M.n.F...0 R n o 6 b N :.S.q.x.c.l.l.i.a.a.u.a.! a.",
"a.! S.b.l.x.M.x.x.S.Y X _ 0 d s   , g M.%.$.a.i.d.p.l.u.u.x.! i.",
"a.^ D.v.M.M.S.A.x.N.^ , H 1 1 y + > j M.x.u.p.l.x.v.x.a.M.S.^ a.",
"k.^ G.x.a.N.V.M.M.N.p.U J r @ 1 g j x A.l.v.v.x.v.v.c.d.v.D.^ k.",
"x.[ F.x.n.N.M.x.M.N.b.{ _ 8 * - e 6 g A.3.,.<.,.>.>.>.>.,.V.[ c.",
"n.[ G.S.M.D.N.l.x.J.x.X.} p B C S H { G.o.P ( | q M &.=.,.S.[ n.",
"M.} L.G.S.G.G.m.N.Y.G.F.F.q.' ] 8.Z.Z.P.T O H v # 8 4 c P M.} n.",
"M.} U.E.E.E.E.E.E.E.E.E.E.E.E.E.E.R.E.Y.K   J t a s . : 9 n...M.",
"S.X.D.D.D.D.D.D.G.D.D.D.H.H.L.J.H.H.G.G.` i H r % w < 2 f M...Z.",
"S.i.[ [ [ [ [ [ ` [ [ L #.| | X.X...X.$.u.` E i $ & l h g Z.X.S.",
"D.D.D.D.S.S.S.S.S.S.S.X.N.v.n.N.M.x.n.N.x.! W e - V 3 7 v N.X.D.",
"G.G.G.G.L.G.G.G.G.G.G.+.D.Z.x.N.M.u.p.G.V.u.r.F Z A D @.#.G.+.D.",
"K.K.L.L.L.L.L.L.G.J.J.$.J.E.I.E.Y.J.I.E.R.I.I.S.C.C.C.G.F.I.+.G.",
"I.I.I.I.I.I.I.I.I.I.I.$.I.E.E.E.E.E.E.E.E.E.E.E.E.E.E.E.E.E.+.I.",
"U.U.U.U.R.R.R.I.U.U.U.u.$.%.%.%.q.<.%.%.%.%.%.%.%.%.%.%.$.%.%.I.",
"U.E.R.E.R.R.R.E.E.R.R.G.a.i.u.u.p.u.u.p.u.u.p.u.u.u.u.u.u.a.D.T."
};
