/* XPM */
static char *fileopen[] = {
/* columns rows colors chars-per-pixel */
"32 32 157 2",
"   c #00FE46FD00FE",
".  c #00FC4C3F00FC",
"X  c #0CE64DAF0CE6",
"o  c #002453D90024",
"O  c #00C15ABC00C1",
"+  c #08A5523708A5",
"@  c #0E0E5E5E0E0E",
"#  c #127A5383127A",
"$  c #10665BB11066",
"%  c #1AC955061AAE",
"&  c #01C1636901C1",
"*  c #00D26DCE00D2",
"=  c #0B0B64640B0B",
"-  c #0A6D6D9E0A6D",
";  c #00D87CD400D8",
":  c #0BA8774A0BA8",
">  c #0E3D7AE80E3D",
",  c #14076482140A",
"<  c #14146B6B1414",
"1  c #1C4F6D3A1C4F",
"2  c #1D1D731D1D1D",
"3  c #23C95DD923C9",
"4  c #2F3E60242F3E",
"5  c #319B5ECD319B",
"6  c #242477772424",
"7  c #212779F22127",
"8  c #2F2F77772F2F",
"9  c #32E9699332E9",
"0  c #398B65C0398B",
"q  c #39DF68B439DF",
"w  c #36FB745636FB",
"e  c #3CF67D133CF9",
"r  c #488B6F05488B",
"t  c #4B59801F4B59",
"y  c #56E577E656B9",
"u  c #5BB17B965BB1",
"i  c #642D7EFC648F",
"p  c #020280800202",
"a  c #0C0C86860C0C",
"s  c #0C538E8F0C54",
"d  c #13CA85B613CA",
"f  c #1F1F81811F1F",
"g  c #1B1B8D8D1B1B",
"h  c #1B1B95151B1B",
"j  c #26A784032666",
"k  c #27348DA3272D",
"l  c #2BAC8B8B2B2B",
"z  c #272795952727",
"x  c #2A2A94942A2A",
"c  c #2B2B9B1A2AAA",
"v  c #35358C8C3434",
"b  c #3E17841E3E19",
"n  c #353595493562",
"m  c #32919C3B328C",
"M  c #3A3A92923939",
"N  c #39F19D5439A7",
"B  c #3A3AA13A3A3A",
"V  c #42F1834B42F6",
"C  c #45458C8C4545",
"Z  c #49D283B649D2",
"A  c #4A928A4B4A92",
"S  c #4F4F93934F4F",
"D  c #50B68DA75109",
"F  c #573A9CDF5716",
"G  c #5B5B9B1A5B5B",
"H  c #4747A3224747",
"J  c #4747A9A94747",
"K  c #49C9A70D48E2",
"L  c #4AFDA9FD49FD",
"P  c #551EA7C0551E",
"I  c #564CAC855637",
"U  c #668481176684",
"Y  c #64B88C1764B8",
"T  c #6B4081BF6B40",
"R  c #63639F9F6363",
"E  c #6EC69ED96E54",
"W  c #740784577407",
"Q  c #7B1085F87B55",
"!  c #7C148EA37C14",
"~  c #745698687456",
"^  c #79E39F7279E3",
"/  c #620CA2A2620C",
"(  c #6D6DA5A56D6D",
")  c #6969A9A96969",
"_  c #649FB1C563B2",
"`  c #6E9FB23F6DC5",
"'  c #734EAA5572EB",
"]  c #7CE3A6737CE3",
"[  c #70B4B652709F",
"{  c #7DB6B4B37D8C",
"}  c #7DFDBBBB7DFD",
"|  c #835C89DE83A9",
" . c #84B6967E84B6",
".. c #8FF0939F8FF0",
"X. c #8EFD9AC28EFD",
"o. c #9CF19DBB9CF1",
"O. c #80FFA6B280FF",
"+. c #8302B7378302",
"@. c #8989BBBB8989",
"#. c #94FFA3B094B0",
"$. c #992AA55E99C6",
"%. c #995DAA1F98BC",
"&. c #9494BFBF9494",
"*. c #9C9DB20A9C9D",
"=. c #A4DFA41AA4DF",
"-. c #A659AB5AA658",
";. c #AD2BAC17ACFC",
":. c #A4B5B5ABA4B5",
">. c #B06DB471B06D",
",. c #B013C0B7B013",
"<. c #B107AF7CB107",
"1. c #B133BDDDB039",
"2. c #B505B4BEB4F1",
"3. c #B711BDC6B711",
"4. c #B978B777B978",
"5. c #B8BEB989B7F6",
"6. c #BC37BB7FBC7D",
"7. c #C08EC08EC15D",
"8. c #9717C2419717",
"9. c #9616CD0C9616",
"0. c #995BC540995B",
"q. c #9A1DCBEA9A1D",
"w. c #9B9BD0D09B9B",
"e. c #BDCCC44CBDCC",
"r. c #C152BF82C152",
"t. c #C546C46EC553",
"y. c #C867CBBEC867",
"u. c #C934C7D5C934",
"i. c #CDA7CCECCDC8",
"p. c #CFD2D25CCFD2",
"a. c #D22ACF2DD22A",
"s. c #D4F8D3CCD51B",
"d. c #D7AADB62D7AA",
"f. c #D9C2D7C9D9A0",
"g. c #DD20DCA9DD16",
"h. c #DFDFDE88E0E0",
"j. c #E08FE159E08F",
"k. c #E0E0DEDEDFDF",
"l. c #E1EADFF5E1EA",
"z. c #E4DFE3E1E4C9",
"x. c #E847E847E943",
"c. c #E93DE7ECE93D",
"v. c #ED25EC95ED2B",
"b. c #EFEFEFEFF0F0",
"n. c #EFEFF0F0EFEF",
"m. c #EFEFF0F0F0F0",
"M. c #F0F0EFEFEFEF",
"N. c #F0F0EFDEF0F0",
"B. c #F0F0F0F0EFEF",
"V. c #F430F41FF42F",
"C. c #F7F7F7F7F8F8",
"Z. c #F7F7F8F8F7F7",
"A. c #F7F7F8F8F8F8",
"S. c #F8F8F7F7F7F7",
"D. c #F8F8F7F7F8F8",
"F. c #F8F8F8F8F7F7",
"G. c #FB02FB10FB0C",
/* pixels */
"v.V.n.n.n.n.v.v.n.n.v.V.n.v.v.V.v.v.n.b.M.n.n.v.V.n.v.V.V.v.V.v.",
"v.V.V.v.v.V.V.V.V.v.V.v.v.V.v.V.V.V.n.V.M.M.V.n.v.V.V.v.v.V.V.V.",
"V.V.V.V.V.v.V.v.v.V.V.v.V.m.V.b.V.V.V.v.V.M.V.V.V.v.V.V.V.v.V.V.",
"V.v.V.v.V.V.V.V.V.V.V.V.V.V.z.,.d.V.V.V.V.V.V.V.V.V.V.V.V.V.V.V.",
"V.V.V.V.V.V.V.V.Z.V.V.V.V.s.y + 9 #.j.V.V.V.V.V.V.V.V.V.V.V.V.V.",
"V.C.V.V.V.V.V.V.V.V.V.Z.e.q . o o O w %.z.Z.S.V.Z.V.C.V.Z.V.C.Z.",
"S.V.C.V.C.V.F.Z.Z.V.V.-.3 . o o O & 2 - b :.v.V.Z.C.C.C.F.V.Z.Z.",
"S.Z.F.V.S.C.S.Z.Z.v. .# . o o O O C @./ f : D e.V.S.F.F.F.F.C.C.",
"Z.F.F.G.F.F.F.Z.j.U +   o o O & S 8.0.0.@.P d d E d.Z.F.F.F.G.G.",
"F.F.G.F.F.G.G.p.r . . o o O = G 8.0.0.0.q.q.} B s n :.V.G.G.G.G.",
"G.G.G.G.G.G.3.4     o o O , / 0.0.8.q.q.q.9.q.9.J h m ] j.G.G.G.",
"G.G.G.G.V.$.%   o o O O < ( 0.0.8.q.0.q.q.q.q._ z c B L ' p.G.G.",
"G.G.G.v.! X   o o o Z V ' 0.0.0.q.q.q.9.w.w./ 2 k B L I _ { p.G.",
"G.G.g.u     . o o O R &.0.0.0.0.0.q.q.q.9.G 1 j N J I _ [ ` ] x.",
"G.y.0       o o O O A 0.0.0.0.0.q.0.q.9.F 1 j N K I _ [ ) G G f.",
"G.3.5 . o o o O O O b 0.0.0.0.q.q.9.9.F 1 j N K I _ [ ` G t ..r.",
"F.v.t.W 3 O O O & & 8 0.0.q.q.q.w.q./ 1 j N J I _ ` ` F Z | 4.t.",
"G.V.c.d.>.u , & & & 1 { +.+.+.{ } } ) M N L I _ [ ` F Z | 2.r.i.",
"G.G.F.V.4.o.| e - * O $ $ $ = @ , 1 l N L I _ ` ` F V Q 4.t.a.a.",
"G.G.G.u.7.t.2.$.Y 2 * O O & & = 1 6 v H I _ [ ` F V Q 5.u.a.a.a.",
"G.G.f.g.F.z.s.6.2.X.Z > ; ; a g x N H I _ [ ` F t i 4.i.a.f.s.s.",
"G.c.g.G.G.G.V.g.i.6.-.~ k s h c N K I _ [ ` F V i 4.i.f.f.f.f.f.",
"G.l.;.y.V.G.G.G.v.d.u.4.$.F m B K I _ [ ` F b T r.s.f.f.h.f.h.f.",
"G.l.u.2.=.t.V.G.G.Z.z.s.t.<.] P I _ ` ` F b U 6.a.l.h.h.h.h.h.l.",
"G.j.k.a.u.4.=.4.x.G.G.V.z.a.7.*.` ` ` F b i 4.f.l.l.l.l.l.l.l.l.",
"V.x.z.z.k.a.i.6.;.;.f.F.G.v.g.i.1.{ F b u 4.f.l.c.l.v.l.v.l.l.N.",
"b.v.c.c.v.x.l.g.a.u.2.=.7.c.F.n.g.,.A u 6.f.c.c.v.l.v.l.v.l.N.c.",
"b.v.M.v.v.v.v.v.c.z.d.a.7.;.;.u.g.g. .4.g.x.v.v.N.N.N.v.v.v.v.N.",
"b.V.b.b.v.V.v.b.V.v.v.x.z.d.i.7.2.>.t.g.v.b.v.b.N.N.N.N.N.N.N.v.",
"V.V.V.V.V.V.V.V.V.V.V.V.V.v.v.z.g.g.x.v.N.V.V.V.N.C.N.N.V.V.V.V.",
"S.S.S.C.S.S.S.S.C.V.C.S.V.S.C.V.V.V.V.C.C.C.C.C.D.C.D.C.D.D.D.D.",
"F.S.G.F.S.G.F.F.G.G.F.F.G.F.G.F.G.F.F.F.G.D.S.D.D.S.G.D.D.D.D.D."
};
