/* XPM */
static char *folder[] = {
/* columns rows colors chars-per-pixel */
"32 32 193 2",
"   c #0EFE33FE60FD",
".  c #108237356491",
"X  c #13C739DE66E5",
"o  c #11BF3CA46B72",
"O  c #1A3C3C896674",
"+  c #1B0E42636EAD",
"@  c #141B43597307",
"#  c #169747477878",
"$  c #161648487777",
"%  c #161648C879F9",
"&  c #1B1B46467171",
"*  c #19374C187CA3",
"=  c #23E845256BE3",
"-  c #2C564B7F6E1E",
";  c #22224E4E7A7A",
":  c #2FD94EBF71EF",
">  c #2A2A51517B7B",
",  c #31FF4A4A67CE",
"<  c #39F553E972BB",
"1  c #43065AF1777E",
"2  c #42A65E2E7D02",
"3  c #548567127CF1",
"4  c #63CA6C8E7934",
"5  c #17174E4E8080",
"6  c #19CF4FCC82CF",
"7  c #1B1B52A88459",
"8  c #1D1D58588B8B",
"9  c #1E5A5CD89150",
"0  c #22B55AC58C41",
"q  c #2BCD56FF8147",
"w  c #34345CDC8404",
"e  c #2486663D9C0C",
"r  c #272768689B9B",
"t  c #2AF165439505",
"y  c #3D3D63638A8A",
"u  c #3C216DA89597",
"i  c #25256969A0A0",
"p  c #29296D6DA3A3",
"a  c #291473CCABF6",
"s  c #2DFB79FBB1FA",
"d  c #355671EAA320",
"f  c #37377878AAAA",
"g  c #3ACB76C5A6D1",
"h  c #35357F7FB5B5",
"j  c #444465658787",
"k  c #483B695A8A27",
"l  c #4C196DEC8C0D",
"z  c #4A4A70709595",
"x  c #5ED870FB85DA",
"c  c #520D750A9545",
"v  c #55527CE79DBB",
"b  c #5BA87CB09897",
"n  c #59657C4E99C5",
"m  c #40407C7CA8A8",
"M  c #52887E46A285",
"N  c #64EE767487A9",
"B  c #6AF97A0A8869",
"V  c #6E377BE18B41",
"C  c #74997EFA89F1",
"Z  c #3680812FB6FF",
"A  c #5DC7818A9CBA",
"S  c #476C80F2AAFC",
"D  c #40408080B0B0",
"F  c #43438B0BBDBD",
"G  c #56568484A8A8",
"H  c #5E0D8437A5F2",
"J  c #53CC8B5EB30D",
"K  c #51518F8FB9B9",
"L  c #5D5D9999BFBF",
"P  c #7CE383518BBF",
"I  c #7202854695D8",
"U  c #7F2589FA9763",
"Y  c #62FE84DAA0F1",
"T  c #6E3C8AC8A129",
"R  c #61619696BEBE",
"E  c #6D7C9528B150",
"W  c #800D9386A239",
"Q  c #7E6D9942ACF1",
"!  c #75759595B3B3",
"~  c #536095F2C390",
"^  c #58AE98FFC52F",
"/  c #5E5E9F9FCACA",
"(  c #5F5FA0A0CBCB",
")  c #62629C9CC2C2",
"_  c #6060A1A1CCCC",
"`  c #6DEDA221C4C4",
"'  c #6B6BA322C8C8",
"]  c #69E9A8A8CFCF",
"[  c #6CD0AAFFD29C",
"{  c #70D7A121C2C2",
"}  c #749CAAB4CD31",
"|  c #7474ADADD1D1",
" . c #78EAB3B3D7BA",
".. c #78E1B4DED8DF",
"X. c gray53",
"o. c #838386ED8E27",
"O. c #87DD8A169017",
"+. c #8C728C728C72",
"@. c #845A8D2095FF",
"#. c #874491B59C23",
"$. c #8AD293F49F5E",
"%. c #94069415948D",
"&. c #9274939399D5",
"*. c #92ED99C69EBC",
"=. c #9C5B9BD89C38",
"-. c #96FDA039A8DB",
";. c #9F239F64A1A2",
":. c #86B2A110B397",
">. c #8383A1A1B8B8",
",. c #8CB7A62EB6C8",
"<. c #9CB1A3E3AB35",
"1. c #9090A5A5B7B7",
"2. c #9393A9A9BFBF",
"3. c #9ED0A7E9B0E2",
"4. c #9A9AABABBCBC",
"5. c #A396A333A396",
"6. c #AC84ABFEAC82",
"7. c #A798AC8EB282",
"8. c #A526B3CEBCAD",
"9. c #B043B239B33D",
"0. c #AA24B41EBB9B",
"q. c #B151AF41B151",
"w. c #B4EDB3F1B49D",
"e. c #B613B734BABE",
"r. c #B978B777B990",
"t. c #BC4ABBC3BD02",
"y. c #880FAF09C66B",
"u. c #8E8EAAAAC3C3",
"i. c #8383B7B7D5D5",
"p. c #859FBCBCDDC3",
"a. c #8A8AB5B5D2D2",
"s. c #8DF8BAD3D53E",
"d. c #89B4BBFBDA44",
"f. c #9292B4B4C9C9",
"g. c #9354B9E6D08A",
"h. c #943EBB1CD373",
"j. c #8686BEBEE0E0",
"k. c #A2A2BCBCCECE",
"l. c #ABABBCBCCDCD",
"z. c #A423BDBDD150",
"x. c #B615BFD1C5B4",
"c. c #C08EC08EC15D",
"v. c #8F96C49CE2CD",
"b. c #A6A6C2C2D3D3",
"n. c #AD2DC646D6D6",
"m. c #AE58CA74DC86",
"M. c #B5F4C1B2C990",
"N. c #BF5DC43FC865",
"B. c #B7B7C3C3D0D0",
"V. c #B4B4CACAD8D8",
"C. c #BFBFCCCCD7D7",
"Z. c #BBBBCDCDDDDD",
"A. c #C152BF82C152",
"S. c #C518C453C52C",
"D. c #C8C8C7C7C7C7",
"F. c #CA5FC7E5CA5F",
"G. c #CD9ECC45CDD9",
"H. c #CC4ACF8CD174",
"J. c #C444D1D1DD5D",
"K. c #D054D1AFD360",
"L. c #D143CE42D143",
"P. c #D522D3ADD51F",
"I. c #D8C4DAD5DC7C",
"U. c #D9CAD7B4D9AF",
"Y. c #DD4CDCA8DD6B",
"T. c #C2C2D4D4E3E3",
"R. c #C1C1D9D9E8E8",
"E. c #CDCDDBDBE7E7",
"W. c #D5D5DBDBE1E1",
"Q. c #DF98DEEFE0E9",
"!. c #DADAE6E6EFEF",
"~. c #DFDFE8E8F0F0",
"^. c #E0E0DEDEDFDF",
"/. c #E135DF39E135",
"(. c #E4DBE3EFE4CD",
"). c #E847E847E943",
"_. c #E93DE7ECE93D",
"`. c #ED3CEC9DED43",
"'. c #E2E2EBEBF2F2",
"]. c #EE54EF6FF157",
"[. c #EFEFF0F0EFEF",
"{. c #EEBBF258F48D",
"}. c #F0F0EFEFEFEF",
"|. c #F0F0EFDDF0F0",
" X c #F0F0F0F0EFEF",
".X c #F438F42DF440",
"XX c #F7F7F7F7F8F8",
"oX c #F7F7F8F8F7F7",
"OX c #F7F7F9A3FA4F",
"+X c #F8F8F7F7F7F7",
"@X c #F8F8F7F7F8F8",
"#X c #F8F8F8F8F7F7",
"$X c #FB2FFB4EFB52",
/* pixels */
"`..X`.`.{.`.{.`..X`..X`.`.{.{.`. X X X X{.`. X X X X X X X X.X|.",
"`..X.X`..X`. X X`.`.`..X`..X X X X X X X`..X X X.X+X X X.X X|..X",
".X.X.X.X.X.X X X.X.X X X{. X#X{.+X X+X.X.X`. X X.X{. X X.X|..X.X",
".X`..X`..X+X X#X.X.X+X X X X(.e.Y..X X X+X X+X{..X`.+X{..X.X.X.X",
".X.X.X.X.X X+X+X X+X{.+X+XP.x + < <.Y.+X.X.X X+X X{.#X X.X X+X+X",
".X.X.X.X.X X+X.X{..X+X XN.2 o o # * k 3.(.+X+X#X#X+X+X{.+X{..X+X",
"+X+X+X.X+X+X XoX+X+X.X7.- o o @ # * 7 0 z 0.`. X#X+X+X+X.X+X+X+X",
".X+XXX.X+X+X+XoXOX`.$.= o o @ $ * 7 7 8 9 r Y N. XOX+XOXOX+X+X+X",
"OXOX#XoXXXOXOXOX(.V o o o @ @ % 6 7 0 t d g p g :.U.+XoXoXOXOX$X",
"OXOXOXOXOX$XOXL.3   & > y z G ! u.k.Z.E.'.T.f a s J l..X#XOX$X$X",
"$X$X$X$X$X$Xx.<   o j B.{..X`.`.(.P.S.t.}.'.Z a h ~ ~ >.^.$X$X$X",
"$X$X$X$XOX5.=   o o & 4.$XL.%.+.X.X.+.+.U..XL ' K ~ / [ y.K.$X$X",
"$X$X$X`.@.O   o o ; 2..Xt.+.+.%.%.%.=.%.U.$X!.{.a.( [ ..j.h.K.$X",
"$X$XY.x X   o o q l.+Xw.+.%.w.D.;.%.%.%.L.$XOXb.) [ ..p.v.d.:.`.",
"$XG.1     o o y J.$Xq.+.%.r..X$X(.6.%.%.S.$Xn.L ] ..j.v.d.` T Y.",
"G.*., X o o # c W.$XU.6.N.+X(.`.K.=.%.;.(.$Xm.] ..p.v.p.! b %.N.",
"F.t.;.4 - @ # $ > ,.`.#X$X$X).c.+.%.5.Y.$XOXR...p.v.d.` b O.r.S.",
"G.F.t.q.%.3 > 7 8 7 v C.$X$XP.+.%.5.^.$XV.f.m.p.v.d.` A o.w.S.G.",
"L.L.G.D.=.=.@.l 0 t 9 t >.`. XD.6.(.$XV.` } i.v.d.` v P r.F.L.L.",
"L.L.P.6.S.D.w.;.I u e p r G J.$XoX$Xb.`  .p.v.d.` A P w.F.L.L.L.",
"U.U.r.U.OX(.P.c.6.*.A d a a g b.[.b.` ..p.v.i.` M C r.F.L.P.U.L.",
"U.S.U.$X$X$X`.^.G.t.6.W S Z F K { ' ..p.v.d.` v C r.L.U.U.U.U.U.",
"Y.F.6.G.#X$X$X$X`.I.D.w.<.E L ( ] ..p.v.d.{ v P t.L.U.U.Y.U.Y.Y.",
"^.U.F.q.5.S. X$X$X.X).P.c.9.,.} ..p.v.d.` G B r.L.^././././././.",
"/./.U.L.D.w.5.w.(.$X$X X(.P.c.0.h.v.d.) M B t.P./././././././._.",
"(._._._.Y.U.G.t.6.6.U.OX$X`.Y.F.x.h.{ M N r.U./._._._._._._./._.",
"`._._._._._./.Y.P.S.q.6.c._.#X}.Y.x.H N t.U._._._._._._._._._.`.",
"`.`.}.`.`.}.`.}.).(.U.G.N.6.6.D.Y.Y.#.r.Y._.`.`.`.`.`.`.`.`.`.`.",
".X X|.|.|.|.|.|. X X|._.^.U.G.t.w.w.S.Y.`.}.|.|.|.|.|.|.|.|.|.|.",
" X.X.X X.X.X.X.X X X+X.X{.}.`.(.Y.Y.(.]..X X|..X X.X X|..X.X.X|.",
"+X+X+X+X+X+X+X+X#X+XoX+X#X+X+X+X.X.X+X+X+X+X+X+XOXOX+X+X+X+XOX+X",
"OX$X$XOXOXOXOXOXOX#X#X$X#X#XOXOXOXOXoXOX@XOXOX$X@X@X@X@XOX@XOXOX"
};
