/* XPM */
static char *filesave[] = {
/* columns rows colors chars-per-pixel */
"32 32 66 1",
"  c gray12",
". c #244024402446",
"X c #272727272828",
"o c #2A482A472A47",
"O c gray21",
"+ c #3B6F3B6E3B6F",
"@ c #438D438B4389",
"# c #4D044D014D03",
"$ c #538B5389538C",
"% c #585E581C581C",
"& c #5BF55BFB5C03",
"* c #64A1645164AD",
"= c #6B4A6B0C6B92",
"- c #707C6FB5707C",
"; c #73577348735B",
": c #785778BB78BB",
"> c #7C247C1E7C1E",
", c #84C385628619",
"< c #89A18B4E8CA4",
"1 c #8F1191AC9446",
"2 c #948A959A96AA",
"3 c #949496C99966",
"4 c #972599CC9C1D",
"5 c #9AEA9CA29E80",
"6 c #9BDB9EDEA1A1",
"7 c #9E1EA120A4A4",
"8 c #A251A2C9A33E",
"9 c #A6FDA98FAC11",
"0 c #AB5AAC82AD02",
"q c #ACA3AF45B1E6",
"w c #AF44B186B408",
"e c #B527B549B55E",
"r c #B508B76ABA4C",
"t c #B84ABA8CBCCD",
"y c #BE6DBEA3BF00",
"u c #BCEBBEC3C1DC",
"i c #BE13C26CC5C5",
"p c #C4A4C3C2C569",
"a c #C140C5C5C9C9",
"s c #C5C5CACACECE",
"d c #C9C6C6DCC9C6",
"f c #CF10CE7ECF1F",
"g c #CA49CECED352",
"h c #CDCDD227D62B",
"j c #D354D238D378",
"k c #D4D4D9D9DDDD",
"l c #D955D7E0D955",
"z c #DDF4DCBDDDF4",
"x c #D7D7DBDBE0E0",
"c c #DA59DE5EE2E2",
"v c #DE5EE2E2E6E6",
"b c #DFDFE4E4E8E8",
"n c #E3FAE304E3D3",
"m c #E362E767EC6C",
"M c #E5B2E9E9EE20",
"N c #E961E76FE961",
"B c #ED8AED6BED8A",
"V c #E7E7EBEBF0F0",
"C c #E9B6EE20F258",
"Z c #F030F128F030",
"A c #EE3AF2A5F6C3",
"S c #F103F005F103",
"D c #F3E1F3E1F3E1",
"F c #F1CCF63EFA8C",
"G c #F635FA59FDFD",
"H c #FF85FFA1FFA9",
/* pixels */
"B0**:4--;9ytttrwwwq997943>:=%7AA",
"S>$$@oXXotAMbbvxk9===9i1++O+O@rZ",
"B:$$@X..oyACCbbcx<  .3i1@$$OOO>Z",
"B:$$@ X.XiGAACVbb1..X6i1#7>#OO-B",
"B:%&@...opGFFAAMb1...6g3#,;@++-B",
"B>%%@.X.oiHGGAAMV3 ..6i3@@+++O-Z",
"B>&&@...oiHGGGFAC3...7g3+++++O;Z",
"Z>&&@...oiHGHHGAA3..X7g6+@++O+;Z",
"Z>&*#...opHHHHGAA4 .X8h4@+++++;Z",
"Z>&&@...XyHHHHHFFh765ih4@@++++;D",
"D>&*&@@@@;00098855321<,&++++++;D",
"D,&&&*&***&&&&%$$####@@@@@+@++;D",
"D>&&*&&&%%&%%$$###@@@@++++++++;D",
"D>&*#$===============**=**$O++;D",
"D>&&@eHDGDHDDHDGHGGDDHHDHHd+++:D",
"d-&&#yHHHHHHHHHHHHHHHHHHHHf+++*d",
"p=%&#yHHHHHHHHHHHHHHHHHHHHf+++*d",
"d=%&@yHHHHHHHHHHHHHHHHHHHHf+++*d",
"d=%$@yHHHHHHHHHHHHHHHHHHHHf+++*p",
"d=$$@yHHHHHHHHHHHHHHHHHHHHf+++*d",
"j=$$@yHHHHHHHHHHHHHHHHHHHHf+++*f",
"j-$$@yHHHHHHHHHHHHHHHHHHHHf+++*j",
"j-$#+yHHHHHHHHHHHHHHHHHHHHf+++=j",
"l-$#@yHHHHHHHHHHHHHHHHHHHHd+++=l",
"z-#$+pHHHHHHHHHHHHHHHHHHHHf+O+=l",
"n-##+yHHHHHHHHHHHHHHHHHHHHf+++=z",
"n;##+yHHHHHHHHHHHHHHHHHHHHf++O=n",
"n;$%@yHHHHHHHHHHHHHHHHHHHHf+$#=n",
"N;*;+yHHHHHHHHHHHHHHHHHHHHf+=&=B",
"B:##@yHHHHHHHHHHHHHHHHHHHHf++O-B",
"D2$#@,88888888888888888888<@@@2S",
"DnyeeeeeeeeeeeeeeeeeeeeeeeeerynG"
};
