/* XPM */
static char *fileprint[] = {
/* columns rows colors chars-per-pixel */
"32 32 65 1",
"  c #0BD50BD50BD5",
". c #14A814A714A8",
"X c #1A341A331A34",
"o c #232322FE22FE",
"O c #2F2F2F2F2F2F",
"+ c #33B933A933BA",
"@ c #3D863D653D86",
"# c #333342424747",
"$ c #343445454949",
"% c #42DE42D642EF",
"& c #4C784C024C78",
"* c #50504D4D4E4E",
"= c #51D14F4F5050",
"- c #54BC549D54D9",
"; c #5B2E5B165B40",
": c #49495E5E6464",
"> c #484860606262",
", c #60605F5F6161",
"< c #641E641E6435",
"1 c #6CA96CA76CE9",
"2 c #731E72FC731E",
"3 c #7C407C3B7C40",
"4 c #53539797A3A3",
"5 c #53FE9A44A3F9",
"6 c #58D89393A525",
"7 c #5B5B9898ABAB",
"8 c #840C83F5841D",
"9 c #8ABD8A7F8A85",
"0 c #8F8F8F8F9090",
"q c #957395579579",
"w c #9954977A9954",
"e c #9B6C9B4C9B6B",
"r c #A0A59E82A0A5",
"t c #A499A478A4A1",
"y c #A8A8A7A7A8A8",
"u c #ACA9AC7CACB4",
"i c #B085B03EB14C",
"p c #B162B064B0A4",
"a c #B158B074B17F",
"s c #B498B45CB4A5",
"d c #B8C7B803B803",
"f c #B9D1B74DB9D1",
"g c #BC5ABC2DBC6C",
"h c #C42EC3C0C43F",
"j c #C813C73AC8EB",
"k c #CCD9CC0BCCE7",
"l c #D13AD048D22C",
"z c #D57ED548D58D",
"x c #DC9DDC82DCA8",
"c c #E44BE420E42F",
"v c #EE56EE39EE4C",
"b c #EFEFEFEFF0F0",
"n c #EFEFF0F0EFEF",
"m c #EFEFF0F0F0F0",
"M c #F0F0EFEFEFEF",
"N c #F0F0EFE3F0F0",
"B c #F0F0F0F0EFEF",
"V c #F431F41AF429",
"C c #F7F7F7F7F8F8",
"Z c #F7F7F8F8F7F7",
"A c #F7F7F8F8F8F8",
"S c #F8F8F7F7F7F7",
"D c #F8F8F7F7F8F8",
"F c #F8F8F8F8F7F7",
"G c #FB35FB44FB37",
/* pixels */
"vvvvVVvvnnnvVvnnnnnvnnnVvVnnvVvV",
"VvvVvvvVnnnvvVVvvVVvnnvvVvVvVvVv",
"vvVvVVVVVnVmVnVvVvVvnVVnvVVVVvVV",
"VVVVVvVVmVVVVVVVVVVVVVVVVVVVVVVV",
"VVVVVVVVZcxcVVVVVVVVcxvVVVVVVVVC",
"VVCVVVZVcq9ejVZVSAVhq0yVZVCVCVCV",
"SVSVSVVAxuqjggzcckyddesVZSSSASZV",
"SAAVSSAAxu8gcxlutjzcsqdnASSASAAA",
"AAAAGAAAxu9gdyAgiGippqpvAAGGGAAG",
"AAAGGGGGzu9dueZdpZttp0yvGGGGGGGG",
"GGGGGGGGzu8dutVgdVutu0yvGGGGGGGG",
"GGGGGGGGlu9dpyVhgVpypqecGGGGGGGG",
"GGGGGGGGku0dsuVhgmsusqexGGGGGGGG",
"GGGGGGGGkuqgduVjhZdiswqxGGGGGGGG",
"GGGktqqq933888q98w638329wwwtkGGG",
"lke2;-&%%+OoXX....XooO@%%&&;2wkl",
"kr2;%Oo..              .XoO%-2ek",
"hudr823quddq99999999edddssdhklsh",
"pkhy328uxck@o#6766%@-lccxxcccvcd",
"pgdr988qdg3%;:4455;,%0gdssdghkkd",
"hgdye986we&&1&=&*=&&-<eeqqeysgdg",
"ky9teqqete883333333389ttttreq3wh",
"ky8q89qydhkzxckzzkcxzkhdye9881qk",
"zy3q99qtsgkzcvlcczvczkhptq98829k",
"xy3w98wyyqtgkxcvvvxkgywuyw98829z",
"xq<3<1;<,-;-;<1221<;;-;<<;-;,&3z",
"cq;<--+++@%@%%@@@@@%%%@++++%-&3x",
"Mckdppppaaaausussuiiiiaaspppsjcn",
"MMBBMMMMMMMMMMMMvvVvMMMbMMvvnnnn",
"VVVVVVVVVVVVVVVVVVVVVVVVVVVVVVvV",
"FSFSSSSSSCCSSSSSCSSSSSCSSVSSSZAZ",
"FFFFFFFFGAAAGDAAAAAGAASGAAAGAAGA"
};
