/* XPM */
static char *find[] = {
/* columns rows colors chars-per-pixel */
"32 32 132 2",
"   c #01EC018701BD",
".  c #080806060505",
"X  c #0A8B06DC08DE",
"o  c #0C8E0A250B4D",
"O  c #11FE0D190EAB",
"+  c #14AC0EC710E9",
"@  c #150412441331",
"#  c #1A9D136D163B",
"$  c #1C6F167019F4",
"%  c #1CC11AA81B67",
"&  c #202015151818",
"*  c #22911D0A1D0A",
"=  c #25231F7822E1",
"-  c #24BA240223C7",
";  c #29C6255A2595",
":  c #2CC72B082BD8",
">  c #33B42C2C2828",
",  c #3E3E30302D2D",
"<  c #335B324132A7",
"1  c #383835353636",
"2  c #3CCA3B163C52",
"3  c #3E3E3D3D4040",
"4  c #414138383333",
"5  c #41D03C3E3E3C",
"6  c #4A0A3D3D3C3C",
"7  c #44473F49423E",
"8  c #4A4A3E3E4040",
"9  c #4BCC41503CD1",
"0  c #441542684272",
"q  c #4CF243D54404",
"w  c #4CEC4A844B50",
"e  c #505043434444",
"r  c #56D5470A48FF",
"t  c #55554B0B4606",
"y  c #53424D474DB5",
"u  c #585846464747",
"i  c #5F5F48484646",
"p  c #5A5A4A4A4A4A",
"a  c #526F4F2150EE",
"s  c #5E5E50504F4F",
"d  c #558952F053CB",
"f  c #5BF554D154E3",
"g  c #5D585753597F",
"h  c #5D3F5BCA5C40",
"j  c #69694E4E4949",
"k  c #656550504747",
"l  c #6B6B5A5A4E4E",
"z  c #62E3574253BF",
"x  c #65BB595954AA",
"c  c #639D5C745CD9",
"v  c #6A6A57575555",
"b  c #6D185D845BE0",
"n  c #717153534A4A",
"m  c #797956564E4E",
"M  c #727252525151",
"N  c #77775B5B5858",
"B  c #7B7B56565353",
"V  c #7B7B5C5C5656",
"C  c #63C05F58606F",
"Z  c #6DEE61615EDF",
"A  c #715761E15E10",
"S  c #787860605656",
"D  c #7D7D63635A5A",
"F  c #63AF62B5632F",
"G  c #6B3C65296432",
"H  c #6A7067F3696A",
"J  c #6DBE6CFA6D53",
"K  c #747465E66363",
"L  c #73D86C946B93",
"P  c #7C26650F640E",
"I  c #752773E974B8",
"U  c #7B7B75F673F4",
"Y  c #7A4777447889",
"T  c #7D087C3A7CC3",
"R  c #848464BA62B8",
"E  c #828269696060",
"W  c #898966666464",
"Q  c #81817D7D7F7F",
"!  c #88887A7A7A7A",
"~  c #9A9A6E6E6262",
"^  c #9C9C70706363",
"/  c #81FB8038816E",
"(  c #850683B8843B",
")  c #88DB85CE85C9",
"_  c #8D0D8B728C68",
"`  c #901790179090",
"'  c #910B8F0C9061",
"]  c #98988D8D8B8B",
"[  c #925F907891BC",
"{  c #9530945E9529",
"}  c #99A1961A9637",
"|  c #9972979698E8",
" . c #9CFE9B8C9C9A",
".. c #A1669FCEA19D",
"X. c #A53FA43BA52A",
"o. c #AD24ABF4ACCD",
"O. c #B007AE53B0E0",
"+. c #B130AF2FADAD",
"@. c #B5A0B40BB4C3",
"#. c #B9B9B5B5B4B4",
"$. c #B9A8B783B9A8",
"%. c #BCD6BB59BCF7",
"&. c #C0C0BFBFBFBF",
"*. c #C127BE88C127",
"=. c #C4E4C314C4F9",
"-. c #C9F7C7B7C9D8",
";. c #CD1ACB52CCFB",
":. c #CFCFCDCDD0D0",
">. c #D1C7D024D1D3",
",. c #D56DD3ACD563",
"<. c #D97DD765D999",
"1. c #DD61DC24DD94",
"2. c #DFDFDE5EE0E0",
"3. c #E0E0DEDEDFDF",
"4. c #E1C6DFCCE187",
"5. c #E564E415E54E",
"6. c #E919E81BEA18",
"7. c #ED0EEC6CED15",
"8. c #EFEFEFEFF0F0",
"9. c #EFEFF0F0EFEF",
"0. c #EFEFF0F0F0F0",
"q. c #F0F0EFEFEFEF",
"w. c #F0F2EFE4F0F2",
"e. c #F0F0F0F0EFEF",
"r. c #F430F41FF42E",
"t. c #F7FBF7FBF8FB",
"y. c #F7F7F8F8F7F7",
"u. c #F7F7F8F8F8F8",
"i. c #F8F8F7F7F7F7",
"p. c #F8F8F7F7F8F8",
"a. c #F8F8F8F8F7F7",
"s. c #FA62FA7CFA6B",
/* pixels */
"7.r.7.9.7.r.7.r.7.r.7.7.+.I  .1.7.r.7.r.e.7.r.r.7.r.7.r.7.7.r.7.",
"7.r.r.9.r.7.7.9.r.w.r.-.< - 0 { 0.0.e.e.e.e.9.9.r.9.9.r.r.r.w.r.",
"r.9.r.7.r.9.r.r.7.w.w.) ; * ; T O.+.,.7.r.e.r.e.9.9.r.9.r.9.r.r.",
"r.9.r.r.9.r.r.$.c ) } a 6 5 7 7 2 9 f ' <.r.r.r.r.r.r.r.r.r.r.r.",
"r.r.r.r.r.r.r.( 2 c r a q t 3 0 3 2 2 6 c %.r.r.r.r.r.r.r.r.r.r.",
"r.r.r.r.r.r.r. .z f z a t t k 9 0 q 6 5 6 t o.r.r.t.y.r.r.t.r.t.",
"p.r.r.p.r.y.@.A f c c a t i m n q 8 7 2 2 6 q T 1.a.r.y.t.t.a.y.",
"a.a.y.a.a.;.G A g c c c p q y l t 0 7 5 1 1 4 : ` a.p.a.p.a.t.a.",
"a.a.a.a.7.Q Z Z Z G F Z S y Z J U J J d 2 - > - d ,.u.u.u.s.u.s.",
"a.s.s.s.@.c D Z G P R B ~ ]  .X. .I h F H 0 o @ % a X.1.y.s.s.u.",
"s.s.s.a.Q c E R W W P ! @.&.+./ 2 @ O % 2 I h + o @ - w / %.7.s.",
"s.s.s.7.L N ~ K F x G o.-.@.Y %   .     . : ' h o o o @ % : F >.",
"s.s.s.,.N v D f y w _ &.+./ -               a o.: o O @ $ % -  .",
"s.s.s.o.q y M s f x #.+.) 0 .       .   .   % X.C o + # @ $ g <.",
"s.s.s.T w f V N z t +._ H %     . o o o X X + / ( + + # # w &.7.",
">.;.' f x x j , O % | J w .   . o o o o O O O I ( + $ ; d  .%.=.",
";. .a 9 > % X     o / F < o o o O + O O O @ % _ I w H _ o.%.*.;.",
"X.w * .           X I J : O + + + + + = < w J %.Y _  .O.%.-.;.:.",
"f @           X o X w ..3 @ @ % : 7 h I / _ o.X.T  .O.%.;.:.:.:.",
"h ; @ o X o @ $ = - : ( { C C I ( [ |  ...@.O.I  .$.=.;.:.>.>.:.",
"=.| I F C H J I I I H h F _ { { ..o.O.$.&.-. .` $.-.:.>.,.,.,.,.",
",.;.=.$.@.o.X... .| ` T H d h J ` ..X.) Y  .X.F o.,.,.<.<.<.<.<.",
"1.<.,.>.;.-.=.*.*.%.$.o.| _ ( I I Y T ' ..J d J C -.<.2.2.<.2.2.",
"2.1.4.2.1.1.1.,.,.,.:.-.%.o.X.o.o.O.$.*.%.( < h F Y <.2.2.2.2.2.",
"4.5.5.5.4.5.4.4.4.4.4.1.,.-.%.@.@.@.%.%.%.@.J : J h { 2.5.5.5.5.",
"6.5.5.6.6.5.5.6.5.6.5.5.4.1.,.;.-.-.-.;.>.,.$.h 1 Y h O.5.5.5.5.",
"6.7.6.6.6.6.6.7.7.6.6.6.6.5.5.4.2.1.1.2.5.5.<.O.w 3 Y h ;.6.6.6.",
"7.7.7.7.7.6.q.q.7.7.7.7.7.7.7.6.6.6.6.6.7.7.6.1...3 h J J 2.7.7.",
"w.r.7.r.q.q.w.w.r.7.w.w.r.7.r.7.0.9.9.9.9.9.9.6.<.` < H h { 0.0.",
"q.r.r.r.r.r.r.r.r.r.r.r.r.r.r.r.y.0.r.r.r.0.r.r.9.,.I : a X.0.0.",
"a.p.p.p.i.i.i.i.y.t.t.p.r.p.t.t.t.y.y.y.y.y.y.y.y.9.:._ X.5.u.u.",
"a.s.a.a.p.a.s.s.a.s.a.s.a.a.s.a.y.a.y.y.u.u.u.u.u.u.0.6.8.u.s.u."
};
