/* XPM */
static char *help[] = {
/* columns rows colors chars-per-pixel */
"32 32 119 2",
"   c #39393E3E4646",
".  c #3C3C42C24A75",
"X  c #404045C64F4F",
"o  c #414147475050",
"O  c #44334AFF543F",
"+  c #48484E4E5757",
"@  c #4D4D55555F5F",
"#  c #4CCC55D66060",
"$  c #4F4F58586464",
"%  c #52FD5B056610",
"&  c #567D5EC46A4C",
"*  c #5A5A630D6E18",
"=  c #5DB3666671C7",
"-  c #5F5F69697575",
";  c #620C6A6A76CC",
":  c #64646CEC7979",
">  c #6D6D75757F7F",
",  c #6AEE74DE82B9",
"<  c #6D6D78788787",
"1  c #6F4579F888AC",
"2  c #70F17AF087F1",
"3  c #733A7D448B35",
"4  c #767481F391F3",
"5  c #7B7B85E59434",
"6  c #7F7F89899696",
"7  c #7DFE8A8A9B1A",
"8  c #82CD8BD0972A",
"9  c #83508D5A9B01",
"0  c #898992929F1F",
"q  c #83028F8FA0A0",
"w  c #845391B1A313",
"e  c #8A5795C1A4EE",
"r  c #89F29772A972",
"t  c #8DB69AAEAC60",
"y  c #8FF69DF6B1F6",
"u  c #92E89A9AA650",
"i  c #94949DD0AA77",
"p  c #91519EDEB131",
"a  c #9717A120AF2F",
"s  c #9A19A221AD6D",
"d  c #946BA1F5B503",
"f  c #94DBA44EB92B",
"g  c #9B9BA5A5B332",
"h  c #9898A6A6B8B8",
"j  c #9BB1A97BBC89",
"k  c #A4E4AC2BB636",
"l  c #A1A1ADADBDBD",
"z  c #9C5CAD2CC383",
"x  c #A0A0AEAEC0C0",
"c  c #A3ACB27FC6D2",
"v  c #A5A1B565CB0B",
"b  c #A7A7B8B8CECE",
"n  c #AD57B7B7C5C5",
"m  c #A8F9B7FACEF9",
"M  c #AA9EB9CDCEA4",
"N  c #A4A4B9B9D3D3",
"B  c #ADB0BDCAD42C",
"V  c #AA54BF14D983",
"C  c #B130B9B9C5C5",
"Z  c #B3D9BEC5CE3C",
"A  c #B256BF3AD0FE",
"S  c #AFA9C0F2D79C",
"D  c #AF75C162D988",
"F  c #B6F2C159CEF2",
"G  c #B31BC1D5D679",
"H  c #B26DC40BDBB7",
"J  c #BA12C503D43D",
"K  c #B933C78EDB7F",
"L  c #BCE9CA75DDA9",
"P  c #B396C763E1A8",
"I  c #B591CA3BE4CE",
"U  c #B7B7CD87E945",
"Y  c #BB6ECD5BE549",
"T  c #B932CF2DEB3B",
"R  c #BB10D1E5EE5D",
"E  c #BC82D460F1D8",
"W  c #C5C5C5C5C5C5",
"Q  c #C7EEC8C5CC3B",
"!  c #C8C8C7C7C7C7",
"~  c #CE67CBCBCE67",
"^  c #C3B7CBCFD6E4",
"/  c #C544CDF1DAB0",
"(  c #CACBCE4ED612",
")  c #CD16D27ADBD1",
"_  c #D398D2B9D44C",
"`  c #D3D6D714DC51",
"'  c #D67DD9EBDEC2",
"]  c #D98FD7B1D94F",
"[  c #DD45DC94DED6",
"{  c #C1A6D04EE4F6",
"}  c #C5EFD2A0E432",
"|  c #C217D52AED42",
" . c #CB65D5EFE4D4",
".. c #CEEED935E6F0",
"X. c #CFBCDC41EC1C",
"o. c #C0C0D6D6F372",
"O. c #C0C0D8D8F6F6",
"+. c #D033DDBFF0F0",
"@. c #D682DC45E4C1",
"#. c #D37CDD8FEC00",
"$. c #DB0ADE84E43C",
"%. c #DAEBE001E8F9",
"&. c #DFB2E1CBE474",
"*. c #DB38E2B1ECD6",
"=. c #E485E3FFE513",
"-. c #E50BE7D3EBF0",
";. c #E7A4EA62ED04",
":. c #E912E813E912",
">. c #EDD8ED74EDF8",
",. c #E70DEB42F137",
"<. c #EFEFEFEFF0F0",
"1. c #EFEFF0F0EFEF",
"2. c #F09FF139F1F8",
"3. c #F0F0EFEFEFEF",
"4. c #F0F2EFD1F0F2",
"5. c #F0F0F0F0EFEF",
"6. c #F3BEF3ADF3D4",
"7. c #F7F7F8F8F7F7",
"8. c #FA05F9FAFA05",
/* pixels */
">.6.6.1.1.6.>.>.3.3.-.] @.) / L ^ / ' ` =.>.6.1.>.>.>.6.>.>.6.] ",
"6.>.>.6.>.1.>.6.$.%. ./ J G A A Z Z Z J / ` ` 6.>.6.6.>.6.6.>.>.",
"6.6.6.>.>.6.>.@...J A A B A K H S S S M M n Z ^ =.6.>.6.5.6.6.6.",
"6.>.6.>.6.=.*.J A A V B j e 4 1 2 5 r c M M c l F ' 6.6.6.6.6.>.",
"6.6.6.6.=.#.Z M B B r & o   o + O X   O , z m c l F ` 6.6.6.6.=.",
"7.6.6.-.X.M S S B ,   % 3 0 i i i e 9 , o O y B v c J &.7.6.6._ ",
"6.7.7.*.A M M S , X 5 k n Z A J J C s r t = O f b b c  .:.7.6.W ",
"6.7.*.J B B B t + 5 k Z A B N N M A J u 9 p * - M b b n *.7.6.! ",
"7.;. .B B B K < : p { T I I I I P P U H 7 e 0 % j V m v J &._ ~ ",
"8.-.A B V H P < , p V V E E E E E E T E e 7 t : f D b B M .._ _ ",
"7. .B B B H P 3 2 & O . 7 E T T R R T E 7 5 t , f D V M M J Q _ ",
"-.L B B B B V 9 7 3 5 < $ v A V V V S b : 7 t 3 j V M M M M ( _ ",
"*.G V B B B K h 5 p p i , c A V M S D w % t e 6 M M b B M M J ] ",
" .G V A H U T T s e r 9 p E T T T E N # 4 d 6 h E P D B M S J _ ",
"/ G V H I U T E | J C J | o.E E E V % ; i w a T T I D D M M G _ ",
"K B A H H I U I U T { T U I I U N # = t 0 a L U I P D S S M G ~ ",
"{ A V A B B B m A m m m B m m z + ; t 0 k J B B b B B M B B A ~ ",
"{ V B P B P P P I P I P P I V % - t u F T I P P D D S V B B G ~ ",
"} A H A I T E E E E E R E O.7 & u i L o.T E E E T U D D B B J ~ ",
"%.B V P A I T E T E E E E H = 3 u L E T E E T T T I P D B S J _ ",
",.Y B A V A P K V H H V Y p : 9 j K A D D P H D V V V A B A ) _ ",
"4. .V A V A B V V A V A V r , 8 v S B M B B M V A A V A S K ( ] ",
"8.*.B V A I I I T U T T o.z , 3 V R R R T T T U I H V A A  .] [ ",
"8.[ { A V P I T T E E o.E Y n C R R R E E T T U P H V A H ` [ [ ",
"8.=.@.B A Y A I U U T T U T o.o.T T T T U U I I H V B B #.[ =.=.",
"4.:.$...B V B V B V B B B B c v B B B B B B B B V A B { ] =.=.=.",
"4.:.:.$. .B A A P H V H V 3   . 3 I B H B V B B B B A @.:.:.:.:.",
"4.4.>.>.$.| B I A I A R j + 3 , + c T P P K P A B Y %.4.>.>.>.>.",
"4.4.4.4.4.%.+.B V A A R r 2 j p , y Y B H V A B } %.4.4.4.4.4.4.",
"4.7.4.4.4.4.=.%.{ A I A M 8 t u 9 B H B H A { +.$.6.4.4.4.6.6.6.",
"8.8.8.7.8.4.7.4.$.#.{ A / Z k k Z A A Y A +.@.>.8.6.6.8.8.6.6.8.",
"8.8.8.8.8.8.8.8.8.4.,.%.} } } } { { } @.,.4.8.8.6.8.8.8.8.8.8.8."
};
