/* XPM */
static char *redo[] = {
/* columns rows colors chars-per-pixel */
"32 32 136 2",
"   c #00004CC3DA14",
".  c #000050D0E4E4",
"X  c #00005342EAEA",
"o  c #09AF58F2EB75",
"O  c #0000560DF3CE",
"+  c #01815A68FCEE",
"@  c #0C675D8DF27C",
"#  c #0D0D6060F7F7",
"$  c #0CB36266FFEB",
"%  c #0D0D6E6EFFFF",
"&  c #18366161E943",
"*  c #12126363F6F6",
"=  c #14F266C0FC9F",
"-  c #162C68E8FFCA",
";  c #1AF96B42FF3A",
":  c #18FB7593FF86",
">  c #23A46B2BEE6D",
",  c #21216F6FFFFF",
"<  c #2D2D7A7AEDED",
"1  c #24CF7247FFFF",
"2  c #2E1773DDF3F6",
"3  c #2B8376A1FFCD",
"4  c #2F2F7878FFFF",
"5  c #33337272E5E5",
"6  c #3A3A7676E4E4",
"7  c #3A8979CFED8D",
"8  c #33337B7BFFFF",
"9  c #38537ACFF368",
"0  c #39397F7FFFFF",
"q  c #43DF76BDD617",
"w  c #425476CED908",
"e  c #47067960D7B4",
"r  c #468D7B45DDE0",
"t  c #48707ACBD91F",
"y  c #13138888FFFF",
"u  c #207B8F07FF77",
"i  c #3F3F8383FFFF",
"p  c #39A39B31FE67",
"a  c #5DB88430CDAD",
"s  c #52528282DADA",
"d  c #599585A0DAD7",
"f  c #43768091EFBC",
"g  c #4D4D8383E7E7",
"h  c #43438585FFFF",
"j  c #486C83E5F185",
"k  c #500A88E6F206",
"l  c #4A1589D6FF36",
"z  c #594A8FDBF3E4",
"x  c #5840966CFD99",
"c  c #5A72945DFDF4",
"v  c #5763A99DFD3B",
"b  c #6224870FCED1",
"n  c #66348C65D3BB",
"m  c #61618C8CDBDB",
"M  c #6A888E42D419",
"N  c #6B6B9191D5D5",
"B  c #7DE79883CE31",
"V  c #7F7F9F9FD9D9",
"C  c #6238935AED04",
"Z  c #6F1D9B97ED39",
"A  c #6E1F9F02F995",
"S  c #7A7A9E9EE0E0",
"D  c #6D5EB0B0FC47",
"F  c #7DFFA3CAE854",
"G  c #74F5A5FBFF29",
"H  c #7F18AE53FB88",
"J  c #B15DAF09B15D",
"K  c #B5FCB3EFB63D",
"L  c #B9FFB771B9FF",
"P  c #BD76BBA4BD9E",
"I  c #8080A2A2D4D4",
"U  c #8484A4A4DEDE",
"Y  c #8FA8A533D2F4",
"T  c #8A8AA9A9D8D8",
"R  c #9214A6F5D356",
"E  c #9715AAC2D502",
"W  c #9393ADADDDDD",
"Q  c #9957AC36D4F8",
"!  c #8484A5A5E2E2",
"~  c #8585ADADF5F5",
"^  c #8F8FB7B7FFFF",
"/  c #9494B3B3ECEC",
"(  c #9D9DB5B5E1E1",
")  c #9E9EBABAE0E0",
"_  c #9F9FBDBDF5F5",
"`  c #A3D5B205D2EB",
"'  c #A1B6B941E45B",
"]  c #A1B6BB6DEAE0",
"[  c #9F83CA48FA66",
"{  c #AAA4C27EEDF4",
"}  c #A4A4C2C2FAFA",
"|  c #A9E3C7C0FF66",
" . c #B6B6CACAE8E8",
".. c #B51ECB41F3D8",
"X. c #B982CE7DF4E0",
"o. c #BC9ED289FAB3",
"O. c #C139BEA0C139",
"+. c #C579C333C579",
"@. c #C9B0C6CBC8B9",
"#. c #CA5EC7E3CA5E",
"$. c #CE0ACB5CCE18",
"%. c #CFCFCDCDD0D0",
"&. c #D112CE41D128",
"*. c #D55BD31BD52B",
"=. c #D82FD633D92D",
"-. c #DA50D7DBDA3C",
";. c #DD44DBBCDD60",
":. c #C867D5C2EDF6",
">. c #C5C5DADAFFFF",
",. c #CCCCDB0DF224",
"<. c #DFDFDEDEE0E0",
"1. c #D377DE71F19D",
"2. c #CF41E102F6F6",
"3. c #DDB6E6CBF4E2",
"4. c #DFDFEAEAFFFF",
"5. c #E0E0DEDEDFDF",
"6. c #E103DF13E114",
"7. c #E5B5E44AE593",
"8. c #E80EE710E90C",
"9. c #ECCEEC1FECEA",
"0. c #E798EF37F787",
"q. c #EF29EFC5F1C6",
"w. c #EB3BF0E6FB3B",
"e. c #EFEFF0F0EFEF",
"r. c #EFEFF0F0F0F0",
"t. c #F0F0EFEFEFEF",
"y. c #F0F0EFE3F0F0",
"u. c #F0F0F0F0EFEF",
"i. c #F44DF438F446",
"p. c #F7F7F7F7F8F8",
"a. c #F7F7F8F8F7F7",
"s. c #F7F7F8F8F8F8",
"d. c #F8F8F7F7F7F7",
"f. c #F8F8F7F7F8F8",
"g. c #F921F921F821",
"h. c #FADBFAE9FAE3",
/* pixels */
"9.i.9.e.9.i.9.i.i.9.i.9.9.i.9.e.e.i.9.i.9.e.e.9.i.e.9.i.e.i.9.i.",
"9.i.i.e.i.9.9.e.9.i.9.i.9.i.i.9.i.9.e.e.i.e.i.e.9.i.i.9.i.9.i.9.",
"i.e.i.9.i.9.i.i.i.i.u.i.i.9.i.i.i.e.i.e.9.i.i.i.i.i.i.e.i.e.i.i.",
"i.e.i.i.i.i.i.i.u.i.i.i.i.i.i.i.i.i.i.i.i.i.i.i.i.i.i.i.i.i.i.i.",
"i.i.i.i.i.i.i.i.u.u.a.u.i.a.a.u.i.i.i.i.a.i.i.p.i.i.i.i.i.i.i.i.",
"i.i.i.i.i.i.i.i.a.u.a.i.i.u.d.u.a.u.i.i.a.i.i.i.s.i.p.i.i.p.i.p.",
"g.p.d.i.p.i.a.i.0.[ v u y y y y y p D 2.u.i.p.s.a.p.p.p.i.d.g.s.",
"i.a.i.d.p.a.w.H : % V ) ,.1.,.,. .T < % x 0.i.g.g.p.g.g.g.g.p.p.",
"g.g.g.g.p.| = > W ,.4.4.4.4.4.4.4.4.4.( > ; X.i.g.g.h.h.h.h.g.h.",
"g.h.h.h.A + m o.>.>.>.>.>.>.>.>.>.>.>.>...r = ..i.g.h.h.h.h.h.h.",
"h.h.w.4 + ! [ U V s s N V / | | | | | | | } 6 - 1.g.h.h.h.h.h.h.",
"h.h.l @ d 5 + + 2 9 k 2 * + > F ^ ^ ^ ^ ^ ^ ~ @ z 9.h.h.h.h.h.h.",
"h.G O + O f F &.*.;.;.<.;.] j + > G G G G G G g + :.p.h.h.h.h.h.",
"o.O O 2 ' *.;.8.e.e.i.i.i.e.8.{ @ # c x c x x c O Z 9.h.h.h.h.h.",
"2 O C *.;.9.i.s.h.h.h.h.h.h.h.i...@ + l l l l l $ 7 8.s.h.h.h.h.",
"& M J L +.#.#.$.$.$.%.$.$.Q Q Q R d X 1 h h h h ; o B R Q Q Q ` ",
"O.P O.O.$.$.$.$.$.$.$.$.Q X X X X X X + i i i i 3 X X X X X X X ",
"$.#.#.$.$.$.$.$.$.$.$.$.$.r . ; 0 0 0 0 0 0 0 0 0 0 0 0 0 + X b ",
"&.&.&.&.&.$.&.&.&.&.&.&.$.#.w . - 8 8 8 8 8 8 8 8 8 8 8 + . a J ",
"&.=.*.*.&.*.&.*.*.&.*.&.*.&.#.q   = 4 8 4 4 4 4 4 4 4 +   a J O.",
"=.=.=.=.*.=.*.=.*.=.*.=.*.*.*.$.w   $ 3 3 3 3 3 3 3 +   b K +.%.",
"-.-.=.=.=.=.=.-.-.-.-.-.-.-.-.-.&.q   $ 1 1 1 1 1 O   b L +.&.=.",
"5.-.5.5.5.5.5.;.;.;.;.;.;.;.;.;.;.*.e   + 1 , , O   a L $.=.;.;.",
"5.5.5.5.6.6.;.6.6.6.6.6.5.6.6.5.;.;.*.t   + ; O   b P $.=.;.;.;.",
"6.6.6.9.6.6.6.9.7.6.7.6.7.7.6.7.6.7.5.=.e   X   n P &.;.6.7.5.5.",
"9.6.6.6.9.6.6.9.8.8.7.8.7.7.8.8.8.7.8.7.;.e   n O.*.;.7.8.8.7.8.",
"9.9.9.9.6.9.9.9.9.8.8.9.8.8.9.8.9.8.9.8.8.5.&.%.*.5.8.8.8.8.8.8.",
"9.9.9.9.y.t.9.9.9.9.9.9.t.9.9.9.9.9.9.9.9.9.7.7.8.9.e.9.9.9.e.e.",
"y.y.y.y.y.9.y.y.y.y.y.y.y.y.y.y.t.t.t.t.y.y.9.y.y.y.y.9.e.i.e.t.",
"i.i.i.i.d.d.i.i.i.i.i.i.i.i.i.i.i.i.i.i.i.i.i.i.i.i.i.i.u.i.i.i.",
"d.d.d.d.d.d.d.d.g.p.p.p.i.d.p.p.p.g.i.i.p.i.p.p.p.i.p.d.d.p.d.i.",
"f.f.f.h.d.d.d.d.h.g.g.h.g.g.g.g.g.h.g.h.h.g.g.h.g.g.g.g.g.h.g.g."
};
