/* XPM */
static char *spellcheck[] = {
/* columns rows colors chars-per-pixel */
"32 32 219 2",
"   c #060106000602",
".  c #0D500D4E0D50",
"X  c #175617561756",
"o  c #1E3F1E461E46",
"O  c #24CC24CD24CD",
"+  c #2D202D0C2D16",
"@  c #353A35393534",
"#  c #3C083C083C10",
"$  c #43D143CB43CB",
"%  c #4C9F4CB14CA8",
"&  c #540053F85407",
"*  c #565058F55650",
"=  c #5B995B945B8F",
"-  c #63D863C363E3",
";  c #6C566C416C4B",
":  c #7421745E744A",
">  c #7CC97CBD7CC9",
",  c #03279549047E",
"<  c #026F9F26026F",
"1  c #0B7795D20B69",
"2  c #0EE298D40EE2",
"3  c #0C719D011042",
"4  c #10169A1B1004",
"5  c #142C98BF16DB",
"6  c #1B129A051C63",
"7  c #04D8A78004D8",
"8  c #018CAE69018C",
"9  c #08BDA6C00AB9",
"0  c #0C26AC570C26",
"q  c #0D08A64C10EE",
"w  c #0307B3BE0306",
"e  c #02FFBCD10300",
"r  c #13C0A7611514",
"t  c #130CAF30130C",
"y  c #1370A93F1B1F",
"u  c #1D98A5071D98",
"i  c #185DAC611840",
"p  c #136EBE0F136E",
"a  c #1616B8B81A1A",
"s  c #1896B1D91896",
"d  c #142CAC752646",
"f  c #1A95AA2F27C0",
"g  c #15B1B0E22F99",
"h  c #1E6DB13B255E",
"j  c #1D1DBFBF2D2D",
"k  c #1F4FBC1634E0",
"l  c #1AC9BFF23A34",
"z  c #23E19C4D240C",
"x  c #2117A7682117",
"c  c #2548AC092548",
"v  c #26BDA9392A18",
"b  c #2F9FA69A2F9F",
"n  c #2D86AE722D86",
"m  c #2592B11A2F23",
"M  c #22B4B5173AE8",
"N  c #2D8DB0D1344A",
"B  c #2BE2B3F43BFE",
"V  c #3198A1D43164",
"C  c #357CAB7635D2",
"Z  c #3705AAF139C1",
"A  c #394DA805394D",
"S  c #30C7B39E3710",
"D  c #32C8B9CB3903",
"F  c #3DEFA4394059",
"G  c #018DC467018D",
"H  c #0050CCA40050",
"J  c #0A8AC9480A8A",
"K  c #0075D45F0075",
"L  c #01B8DDDB01B9",
"P  c #0E0ED4D40E0E",
"I  c #1111C5C51111",
"U  c #1919CBCB1D1D",
"Y  c #1717DDDD1C1C",
"T  c #0000E0E00000",
"R  c #0101E9E90101",
"E  c #0C0CE0E00C0C",
"W  c #0000F3F30000",
"Q  c #0242FC3B0242",
"!  c #0C0CFFFF0C0C",
"~  c #12A6E5C9179F",
"^  c #1515E9E91A1A",
"/  c #1919FEFE1414",
"(  c #1C1CFEFE1C1C",
")  c #1E1EF0F02323",
"_  c #240BCDAF3470",
"`  c #274FDF0C3087",
"'  c #2415E9402DD8",
"]  c #2626ECEC3434",
"[  c #2626FEFE2626",
"{  c #2E2EF8F82E2E",
"}  c #35A8EF6639A0",
"|  c #3535FD7C32B3",
" . c #39DFC61140CD",
".. c #4316ADF0458E",
"X. c #4DC0AB494DC0",
"o. c #4EABAD505128",
"O. c #40A7B2034E97",
"+. c #4B88B5A24C83",
"@. c #4C9FB8FD4DE5",
"#. c #4545BA0F5600",
"$. c #4539B95E58BC",
"%. c #4B6AB2B75592",
"&. c #4E41BF9D5C0F",
"*. c #5159AC835249",
"=. c #57F8ABC05866",
"-. c #5356B5A05356",
";. c #57BEB4815A27",
":. c #524EBE675A32",
">. c #807680F98076",
",. c #760F9A787D8E",
"<. c #662DAF8E662D",
"1. c #64A3B6576611",
"2. c #6238BB7F6238",
"3. c #6A65B4B66C71",
"4. c #672EB93776A2",
"5. c #6CD3BCCD7799",
"6. c #7DFFA3497DFF",
"7. c #72FFB3D87361",
"8. c #73DBBB7675A3",
"9. c #4F3DC0E754D0",
"0. c #5650C41B5650",
"q. c #4FC3C853632A",
"w. c #5EBBC5236113",
"e. c #6630C4BC6630",
"r. c #6C4CC2F76CE7",
"t. c #6E91CBB87E5D",
"y. c #613ADA5F7818",
"u. c #6A27DC5B7FB6",
"i. c #7E03C3037E48",
"p. c #786ED32A7AE0",
"a. c #847784778477",
"s. c #8BA58BA58B7E",
"d. c #94F6951F94F1",
"f. c #981C98BC981C",
"g. c #9B989B979BC3",
"h. c #838DB8AE8500",
"j. c #87D6BDC387D6",
"k. c #8DA3BEC58D6D",
"l. c #A64BA61FA636",
"z. c #A8FAA84DA84D",
"x. c #AC55AC53AC5D",
"c. c #A4F1C070A4F1",
"v. c #B002B0B8B002",
"b. c #B3C9B3CBB39C",
"n. c #B78AB9BEB78A",
"m. c #BB6CBB8CBB8C",
"M. c #81F7C74981F7",
"N. c #85CEC53D8DCB",
"B. c #86EDCB5386ED",
"V. c #870FCB0288D7",
"C. c #8A41C5758CD8",
"Z. c #8C50CD788C50",
"A. c #8D3CC66192E8",
"S. c #8933CB759494",
"D. c #94BEC3E6982C",
"F. c #90D9CF7F90D9",
"G. c #9C2BC85F9D39",
"H. c #9715D9259884",
"J. c #9BC2D8B89BC2",
"K. c #9B9BC95FA165",
"L. c #A67AC3ABA675",
"P. c #A233CC02A87B",
"I. c #A9EBC459AAB0",
"U. c #AB7ECEADAE2C",
"Y. c #A4C1D545A537",
"T. c #A4D7D8FBA4D7",
"R. c #ADB3D503ADB3",
"E. c #AD69D97DAD69",
"W. c #B7E8C9DDB80E",
"Q. c #BEE1C6CCBF01",
"!. c #BC27CB38BD8D",
"~. c #B238D717B5AE",
"^. c #BBF4D49BBD57",
"/. c #B7CFE1F6B8B9",
"(. c #B164EB37BAE1",
"). c #BAEAE563BAEA",
"_. c #BB82F083C6AE",
"`. c #C55AC491C555",
"'. c #C42BC97FC49D",
"]. c #C813CF96C906",
"[. c #C971C692C975",
"{. c #CD75CBBDCD82",
"}. c #CFCFCDCDD0D0",
"|. c #C8C3D35AC8C3",
" X c #C3F0E067C31D",
".X c #C73ED902C930",
"XX c #CD92D223CD92",
"oX c #D012DB3ED012",
"OX c #D0D0CDCDD0D0",
"+X c #D5D5D3FCD5B7",
"@X c #D669DC45D745",
"#X c #D9F6D789D9F6",
"$X c #DCBBDC0EDCE6",
"%X c #DFDFDE5EE0E0",
"&X c #C5E3E440C55B",
"*X c #C769EBFAC769",
"=X c #CDDCE814CDDC",
"-X c #D2FAE309D2FA",
";X c #D4F3EC34D52F",
":X c #DFFBE4AAE028",
">X c #DF94EF4BDF1F",
",X c #DF53F455DF53",
"<X c #E0E0DEDEDFDF",
"1X c #E0E0DEABE0E0",
"2X c #E4CBE3B5E4C6",
"3X c #E4A5EDE7E599",
"4X c #ED08EC92ED27",
"5X c #EFEFEFEFF0F0",
"6X c #E52DF48DE7AF",
"7X c #EE39F1BEEE23",
"8X c #F0F9EFF8EFF8",
"9X c #F0F0EFDAF0F0",
"0X c #F0F0F0F0EFEF",
"qX c #F456F43FF44A",
"wX c #F7F7F7F7F8F8",
"eX c #F50AFA1EF552",
"rX c #F8F8F7F7F7F7",
"tX c #F8F8F7F7F8F8",
"yX c #FA28FA46FA24",
/* pixels */
"4XqX9X4XqXqX4X4X4XqX4X4XqX4X4X4XqX4XqX4X4X4XqXqX4XqX4XqX4X4XqX4X",
"4XqX9X3X#X`.#X2X4XqX:X`.`.`.`.{.:X4XqX4X2X[.`.'.XX2X4XqXqXqX9XqX",
"qXqXqX{.s.O > `.qX4Xl.o o o O % g.2XqX#Xl.$ + + & n.2XqXqX4XqXqX",
"qX4X4Xn.-   & l.9XqXf.  % - - # : m.2Xg.= & * % + a.`.qXqXqXqXqX",
"qXqXqXg.% O $ a.eXqXg.. d.`.b.* - d.'.; @ d.x.d.$ ; x.qXqXqXqXqX",
"qXqXqX> @ : $ - qXqXf.. b.qX%Xa.; a.g.- = $XqX#Xg.a.z.qXqXeXwXrX",
"rXqX$X; $ m.* & #X4Xf.  - a.> @ ; x.s.; a.4XeX4X$X{.$XeXwXrXrXqX",
"wX2Xn.= $ `.= $ v.%Xg.  # & % X - b.a.> g.qXrXrXrXrXrXrXrXrXrXrX",
"rX2Xs.% @ : $ # > OXg.  - > : + % > > > g.0XrXrXyXyXyXyXyXyXyXyX",
"rX#X= @ @ % @ @ % Q.g.. g.+X[.s.; = s.: a.0XrX0X2Xg.x.yXyXyXyXyX",
"4X'.@ % > a.> = o x.f.. m.yX4Xl.; * l.; = OX4X$Xx.- a.yXrXeX,X&X",
"$Xb.o a.4XrXqXl.  f.s.. v.4X$X>.= : XX- + s.`.b.= % s.yXeX;XT.w.",
"x.f.$ ,._.yXyXQ.# a.;   + # # O * l.4Xl.* + @ @ O >.n.*XB.-.C -.",
"m.v.s.4.u.(.6X$Xs.x.d.& & & & = g.#XrX#Xz.- * & * ,.M.e.C b +.Z.",
":X$X@Xy.l q.(.6X2X:X+X`.`.`.`.#X8XyXyXyX0X<XQ.L.J.0.c , 4 %.Y.7X",
"[.[.'.t.M g $.N.[.[.[.`.`.`.`.[.{.{.{.OX'.c.<.A u 0 7 , X.k.Q.].",
"{.{.{.S.$.k B :.A.W.{.{.{.{.{.{.{.{.W.k.7.*.n t 8 7 x *.k.W.{.{.",
"{.OX{.P.5._ k S F D.`.{.{.{.{.].W.L.j.*.u 7 w e e u =.L.'.OX{.{.",
"OXOXOX!.N.d ] } M %.C.OX}.OX{.I.7...6 q e H G 8 1 1.I.[.OXOXOXOX",
"+XOX+XXXK.f ' | ) D :.C.U.G.8.*.C s w G G G 0 n <.L.].OX+XOXOXOX",
"#XOX#X#XU.Z ` } | Y S ..3.;.v q w J H H G 9 C 7.W.{.#XOX#X+XOX#X",
"#X#X#X#X^.2._ ^ [ ( ~ y q q p L K H H e 9 z j.|.#X#X#X#X#X#X#X#X",
"$X1X$X$X.XN.@.U ( ! Q P I J K K K H w i ..k.^.$X$X$X$X$X$X$X$X$X",
"1X1X1X1X@X~.9.m / Q Q W R L K H G e r @.Z.oX$X<X%X%X%X1X1X1X1X1X",
"1X2X1X1X1X1Xe.y ! Q W R L K H H w 2 X.P.2X2X2X1X2X2X2X2X1X2X2X2X",
"4X2X4X2X4X2Xp.C E R R L K H G 8 c 2.R.-X2X2X2X2X2X2X2X2X2X2X2X2X",
"4X4X2X4X4X2XH.@.a L L K H G 8 n r.E.:X4X4X4X4X4X2X4X2X4X4X2X4X4X",
"4X4X4X4X4X4X/.r.9 J K H H 8 6 M. X4X4X4X4X4X4X4X9X4X8X4X4X4X4X4X",
"4XqX4XqXqX4X;XV., G K G 9 S i.&X3XqX4XqXqX4X4X9X9X9X9X9X9X9X9X9X",
"qXqXqXqXqXqX6XT.5 e e 0 +.Z.&X7X9XqXqXqXqX9XqXqX9XqXqX9X9XqX9XqX",
"rXqXwXwXwXrXwX).C t 0 V T.>XwXwXwXrXqXqXwXwXwXwXrXwXrXwXrXtXtXrX",
"yXyXyXyXrXyXrX=X8.C +.E.>XeXyXrXrXyXrXyXrXyXrXwXyXyXtXyXtXtXyXtX"
};
