/* XPM */
static char *undo[] = {
/* columns rows colors chars-per-pixel */
"32 32 113 2",
"   c #00004D40DB41",
".  c #0A2D52F5D756",
"X  c #16E75AB5D743",
"o  c #1D0C5DE6D57F",
"O  c #00004F4FE0E0",
"+  c #000050BEE4E4",
"@  c #0000536DECEC",
"#  c #097A569AE488",
"$  c #0000561DF39D",
"%  c #02C05BECFE99",
"&  c #1FB16083D74F",
"*  c #0A60610BFFFF",
"=  c #0D0D6E6EFFFF",
"-  c #190561D9E760",
";  c #13136666FFFF",
":  c #161668E8FFFF",
">  c #1BB96BBAFF88",
",  c #2B956A40DEA2",
"<  c #321C6B9AD6EC",
"1  c #33976F51DE2C",
"2  c #3B2A701AD28D",
"3  c #400874B0D83F",
"4  c #2210647CE141",
"5  c #21216F6FFFFF",
"6  c #25257272FFFF",
"7  c #2AEB7656FFFF",
"8  c #2F2F7878FFFF",
"9  c #3A3A7878EAEA",
"0  c #33337B7BFFFF",
"q  c #3C3C7E7EF6F6",
"w  c #39397F7FFFFF",
"e  c #457577A4D616",
"r  c #48A378F1D4F2",
"t  c #4DB77E6ADACC",
"y  c #506E7DD8D3A6",
"u  c #13138888FFFF",
"i  c #3F3F8383FFFF",
"p  c #565682E9D80A",
"a  c #590584A5D6FE",
"s  c #4F5E87DDEF35",
"d  c #43438585FFFF",
"f  c #4F2289DAF540",
"g  c #49F889C3FF44",
"h  c #4F739136FD72",
"j  c #50508383E0E0",
"k  c #5F5F8E8EE5E5",
"l  c #59599494FFFF",
"z  c #6EF68F06CD0A",
"x  c #68218D28D30E",
"c  c #664B8DB2D969",
"v  c #6CE99154D693",
"b  c #749091B3CB80",
"n  c #7A3E9568CC17",
"m  c #77779797D3D3",
"M  c #73739999D3D3",
"N  c #7F849CF7D81D",
"B  c #75759B9BE1E1",
"V  c #61D1AEA6FCC6",
"C  c #7575A6A6FFFF",
"Z  c #B5BAB3C7B5BA",
"A  c #BEA0BC50BE80",
"S  c #826B9ABCCD6A",
"D  c #81819F9FD5D5",
"F  c #908AA75BD755",
"G  c #9473A653CB78",
"H  c #9DCBAE5DD112",
"J  c #8484A5A5E2E2",
"K  c #8F8FB7B7FFFF",
"L  c #9696B2B2E4E4",
"P  c #9CC0BD36F867",
"I  c #9C3CBE1DFB45",
"U  c #A356B3A9D5DE",
"Y  c #AA10B8FDDA0C",
"T  c #C098BEEEC16C",
"R  c #B4EABC6DD1C2",
"E  c #A6A6BDBDE6E6",
"W  c #9EE4CA48FA66",
"Q  c #C0B8C552D302",
"!  c #BF3FC869DBA8",
"~  c #A9A9C7C7FFFF",
"^  c #C204BFFDC24D",
"/  c #C5FEC485C5FA",
"(  c #C8FCC74DC825",
")  c #C96DC74BC97B",
"_  c #CE03CB51CE21",
"`  c #C3A3C8CBD74A",
"'  c #CFCFCDCDD0D0",
"]  c #D0E7CDA7CFE7",
"[  c #D19CCEA4D19C",
"{  c #D535D292D501",
"}  c #DA7BD7FFDABB",
"|  c #DCEDDB2FDD35",
" . c #C5C5DADAFFFF",
".. c #DFDFDEDEE0E0",
"X. c #DFDFEAEAFFFF",
"o. c #E13ADF6AE139",
"O. c #E540E40FE537",
"+. c #E97DE789E97D",
"@. c #ED46EC91ED57",
"#. c #EFEFEFEFF0F0",
"$. c #EFEFF0F0EFEF",
"%. c #EFEFF0F0F0F0",
"&. c #F101F004F004",
"*. c #F0F0EFE3F0F0",
"=. c #F0F0F0F0EFEF",
"-. c #F463F44EF45C",
";. c #F7F7F7F7F8F8",
":. c #F7F7F8F8F7F7",
">. c #F7F7F8F8F8F8",
",. c #F949F849F849",
"<. c #F8F8F7F7F8F8",
"1. c #F8F8F8F8F7F7",
"2. c #FB27FB30FB21",
/* pixels */
"@.-.-.$.$.$.$.@.$.@.$.$.$.-.$.$.@.@.$.-.-.@.=.$.@.-.-.$.-.@.@.-.",
"-.@.@.-.@.-.@.-.-.@.@.-.-.@.@.-.-.-.-.@.@.@.-.-.-.@.@.-.$.-.@.-.",
"-.-.@.@.@.-.-.-.@.-.$.-.$.$.-.@.-.@.@.-.@.-.-.-.-.$.-.@.-.@.-.-.",
"-.@.-.-.-.-.@.-.-.-.-.-.-.-.-.-.-.-.-.-.-.-.-.-.-.-.-.-.-.-.-.-.",
"-.-.-.-.-.-.-.-.-.-.-.-.-.-.-.-.-.-.-.-.-.-.-.-.-.-.-.-.-.-.-.-.",
"-.-.-.-.-.:.-.-.:.-.-.:.-.:.-.-.-.-.<.-.<.-.<.-.-.-.;.:.:.-.:.:.",
"<.-.<.-.;.-.:.-.W u V @.-.,.-.:.:.<.-.:.<.-.:.:.:.:.-.:.:.:.:.-.",
";.;.-.<.;.;.;.W = M = h @.-.:.:.:.:.:.,.:.:.:.,.,.,.,.,.,.,.,.,.",
"<.,.,.,.;.;.I % D #.E % g @.:.2.,.,.2.2.,.,.2.2.,.2.2.2.2.,.2.2.",
",.,.,.2.;.I % m  . . .L % f @.,.2.2.2.2.2.2.2.2.2.2.2.2.2.2.2.2.",
"2.2.2.2.I % c ~ ~ ~ ~ ~ J % f @.,.2.2.2.2.2.2.2.2.2.2.2.2.2.2.2.",
"2.2.2.I % j K K K K K K K B % f -.2.2.2.2.2.2.2.2.2.2.2.2.2.2.2.",
"2.2.I $ 9 C C C C C C C C C k % f @.2.2.2.2.2.2.2.2.2.2.2.2.2.2.",
"2.I @ 5 l l l l l l l l l l l q $ f -.2.2.2.2.2.2.2.2.2.2.2.2.2.",
"W $ ; g g g g g d g g g d g g g 7 @ s -.,.2.2.2.2.2.2.2.2.2.2.2.",
"@ @ @ @ @ @ @ 8 d d d d * @ @ @ @ @ @ S / _ [ _ [ [ _ _ [ _ [ [ ",
"H S b b b b # ; i i i i > @ r b b b b Z ^ _ _ _ _ _ _ _ _ _ N - ",
"_ ^ T T T ^ 4 % w w w w w % . S A A A ^ ) _ _ _ _ _ _ _ _ c + 4 ",
"_ _ _ _ _ _ v O 8 0 0 0 0 8 $ # G ) _ _ [ [ [ [ [ [ [ R 1 O O m ",
"[ { { [ { { `   % 8 8 8 8 8 7 @   e U _ [ { [ [ [ F t       e Z ",
"} { } { { { { p   5 7 7 7 7 7 7 * O   X < a 3 <     @ % O < Z ^ ",
"} } } } } | | ` o @ 5 6 6 6 6 6 6 6 ; % $ @ @ % % > %   o G ^ _ ",
"| | | | | | | | Y . + : 5 5 5 5 5 5 5 5 5 5 5 5 > @   2 Z ^ [ } ",
"o.o.o.o...| O.| | U X   % > > > > > > > > > ; $   . z A ) [ ....",
"O.O.O.O.o.O.o.O.O.| ` e     @ % * % * % $ @   . y H / _ | O.O...",
"+.O.O.+.O.+.+.O.+.+.O.} Y a &           . < x U / [ } ..O.O.O.O.",
"+.+.+.+.@.+.+.+.+.+.+.+.O.| { _ / / / / / ) _ { | O.+.+.@.+.+.+.",
"&.&.&.+.&.+.&.&.@.@.@.@.+.+.+.o.o.o.O.| O.O.O.+.@.@.@.@.@.@.@.@.",
"-.@.-.@.@.=.=.=.@.-.@.@.-.@.@.@.@.=.=.@.@.#.#.#.#.#.#.#.@.@.-.#.",
"-.-.-.-.-.-.-.-.-.-.,.-.-.-.<.-.:.=.-.:.-.-.-.-.-.-.-.-.-.-.-.-.",
"<.<.:.<.<.<.<.<.<.-.<.<.<.,.:.<.<.<.:.:.;.;.;.:.-.;.:.:.-.;.-.;.",
":.,.,.,.:.2.:.:.2.:.:.2.:.:.,.:.:.2.:.:.2.,.,.,.,.;.,.,.2.2.,.,."
};
